<svg viewBox="0 0 330 200" xmlns="http://www.w3.org/2000/svg"><g><g><g><g><g><line x1="61.77000045776367" y1="178.01999950408936" x2="56.77000045776367" y2="178.01999950408936" style="visibility: inherit;" fill="rgb(0, 0, 0)" stroke="rgb(204, 204, 204)" stroke-width="1px"></line><line x1="61.77000045776367" y1="158.23999955919055" x2="56.77000045776367" y2="158.23999955919055" style="visibility: inherit;" fill="rgb(0, 0, 0)" stroke="rgb(204, 204, 204)" stroke-width="1px"></line><line x1="61.77000045776367" y1="138.45999961429172" x2="56.77000045776367" y2="138.45999961429172" style="visibility: inherit;" fill="rgb(0, 0, 0)" stroke="rgb(204, 204, 204)" stroke-width="1px"></line><line x1="61.77000045776367" y1="118.67999966939291" x2="56.77000045776367" y2="118.67999966939291" style="visibility: inherit;" fill="rgb(0, 0, 0)" stroke="rgb(204, 204, 204)" stroke-width="1px"></line><line x1="61.77000045776367" y1="98.89999972449408" x2="56.77000045776367" y2="98.89999972449408" style="visibility: inherit;" fill="rgb(0, 0, 0)" stroke="rgb(204, 204, 204)" stroke-width="1px"></line><line x1="61.77000045776367" y1="79.11999977959526" x2="56.77000045776367" y2="79.11999977959526" style="visibility: inherit;" fill="rgb(0, 0, 0)" stroke="rgb(204, 204, 204)" stroke-width="1px"></line><line x1="61.77000045776367" y1="59.33999983469644" x2="56.77000045776367" y2="59.33999983469644" style="visibility: inherit;" fill="rgb(0, 0, 0)" stroke="rgb(204, 204, 204)" stroke-width="1px"></line><line x1="61.77000045776367" y1="39.559999889797666" x2="56.77000045776367" y2="39.559999889797666" style="visibility: inherit;" fill="rgb(0, 0, 0)" stroke="rgb(204, 204, 204)" stroke-width="1px"></line><line x1="61.77000045776367" y1="19.779999944898805" x2="56.77000045776367" y2="19.779999944898805" style="visibility: inherit;" fill="rgb(0, 0, 0)" stroke="rgb(204, 204, 204)" stroke-width="1px"></line><line x1="61.77000045776367" y1="0" x2="56.77000045776367" y2="0" style="visibility: inherit;" fill="rgb(0, 0, 0)" stroke="rgb(204, 204, 204)" stroke-width="1px"></line></g><g transform="translate(51.77000045776367, 0)"><text style="text-anchor: end; visibility: hidden; font-family: &quot;Helvetica Neue&quot;, sans-serif; font-size: 12px; font-weight: 200;" x="0" y="178.01999950408936" dx="0em" dy="0.3em" fill="rgb(50, 49, 63)" stroke="none" stroke-width="1px">-5e-3</text><text style="text-anchor: end; visibility: inherit; font-family: &quot;Helvetica Neue&quot;, sans-serif; font-size: 12px; font-weight: 200;" x="0" y="158.23999955919055" dx="0em" dy="0.3em" fill="rgb(50, 49, 63)" stroke="none" stroke-width="1px">0</text><text style="text-anchor: end; visibility: hidden; font-family: &quot;Helvetica Neue&quot;, sans-serif; font-size: 12px; font-weight: 200;" x="0" y="138.45999961429172" dx="0em" dy="0.3em" fill="rgb(50, 49, 63)" stroke="none" stroke-width="1px">5e-3</text><text style="text-anchor: end; visibility: inherit; font-family: &quot;Helvetica Neue&quot;, sans-serif; font-size: 12px; font-weight: 200;" x="0" y="118.67999966939291" dx="0em" dy="0.3em" fill="rgb(50, 49, 63)" stroke="none" stroke-width="1px">0.01</text><text style="text-anchor: end; visibility: hidden; font-family: &quot;Helvetica Neue&quot;, sans-serif; font-size: 12px; font-weight: 200;" x="0" y="98.89999972449408" dx="0em" dy="0.3em" fill="rgb(50, 49, 63)" stroke="none" stroke-width="1px">0.015</text><text style="text-anchor: end; visibility: inherit; font-family: &quot;Helvetica Neue&quot;, sans-serif; font-size: 12px; font-weight: 200;" x="0" y="79.11999977959526" dx="0em" dy="0.3em" fill="rgb(50, 49, 63)" stroke="none" stroke-width="1px">0.02</text><text style="text-anchor: end; visibility: hidden; font-family: &quot;Helvetica Neue&quot;, sans-serif; font-size: 12px; font-weight: 200;" x="0" y="59.33999983469644" dx="0em" dy="0.3em" fill="rgb(50, 49, 63)" stroke="none" stroke-width="1px">0.025</text><text style="text-anchor: end; visibility: inherit; font-family: &quot;Helvetica Neue&quot;, sans-serif; font-size: 12px; font-weight: 200;" x="0" y="39.559999889797666" dx="0em" dy="0.3em" fill="rgb(50, 49, 63)" stroke="none" stroke-width="1px">0.03</text><text style="text-anchor: end; visibility: hidden; font-family: &quot;Helvetica Neue&quot;, sans-serif; font-size: 12px; font-weight: 200;" x="0" y="19.779999944898805" dx="0em" dy="0.3em" fill="rgb(50, 49, 63)" stroke="none" stroke-width="1px">0.035</text><text style="text-anchor: end; visibility: hidden; font-family: &quot;Helvetica Neue&quot;, sans-serif; font-size: 12px; font-weight: 200;" x="0" y="0" dx="0em" dy="0.3em" fill="rgb(50, 49, 63)" stroke="none" stroke-width="1px">0.04</text></g><line x1="61.77000045776367" y1="0" x2="61.77000045776367" y2="178.01999950408936" fill="rgb(0, 0, 0)" stroke="rgb(204, 204, 204)" stroke-width="1px"></line></g></g><g transform="translate(61, 0)" clip-path="url(#clip_0)"><clipPath id="clip_0"><rect width="268" height="178"></rect></clipPath><g><g><g><line x1="0" y1="0" x2="0" y2="178.01999950408936" fill="rgb(0, 0, 0)" stroke="rgb(60, 60, 60)" stroke-width="1px" opacity="0.25"></line><line x1="22.352499961853027" y1="0" x2="22.352499961853027" y2="178.01999950408936" fill="rgb(0, 0, 0)" stroke="rgb(60, 60, 60)" stroke-width="1px" opacity="0.25"></line><line x1="44.704999923706055" y1="0" x2="44.704999923706055" y2="178.01999950408936" fill="rgb(0, 0, 0)" stroke="rgb(60, 60, 60)" stroke-width="1px" opacity="0.25"></line><line x1="67.05749988555908" y1="0" x2="67.05749988555908" y2="178.01999950408936" fill="rgb(0, 0, 0)" stroke="rgb(60, 60, 60)" stroke-width="1px" opacity="0.25"></line><line x1="89.40999984741211" y1="0" x2="89.40999984741211" y2="178.01999950408936" fill="rgb(0, 0, 0)" stroke="rgb(60, 60, 60)" stroke-width="1px" opacity="0.25"></line><line x1="111.76249980926514" y1="0" x2="111.76249980926514" y2="178.01999950408936" fill="rgb(0, 0, 0)" stroke="rgb(60, 60, 60)" stroke-width="1px" opacity="0.25"></line><line x1="134.11499977111816" y1="0" x2="134.11499977111816" y2="178.01999950408936" fill="rgb(0, 0, 0)" stroke="rgb(60, 60, 60)" stroke-width="1px" opacity="0.25"></line><line x1="156.4674997329712" y1="0" x2="156.4674997329712" y2="178.01999950408936" fill="rgb(0, 0, 0)" stroke="rgb(60, 60, 60)" stroke-width="1px" opacity="0.25"></line><line x1="178.81999969482422" y1="0" x2="178.81999969482422" y2="178.01999950408936" fill="rgb(0, 0, 0)" stroke="rgb(60, 60, 60)" stroke-width="1px" opacity="0.25"></line><line x1="201.17249965667725" y1="0" x2="201.17249965667725" y2="178.01999950408936" fill="rgb(0, 0, 0)" stroke="rgb(60, 60, 60)" stroke-width="1px" opacity="0.25"></line><line x1="223.52499961853027" y1="0" x2="223.52499961853027" y2="178.01999950408936" fill="rgb(0, 0, 0)" stroke="rgb(60, 60, 60)" stroke-width="1px" opacity="0.25"></line><line x1="245.8774995803833" y1="0" x2="245.8774995803833" y2="178.01999950408936" fill="rgb(0, 0, 0)" stroke="rgb(60, 60, 60)" stroke-width="1px" opacity="0.25"></line><line x1="268.2299995422363" y1="0" x2="268.2299995422363" y2="178.01999950408936" fill="rgb(0, 0, 0)" stroke="rgb(60, 60, 60)" stroke-width="1px" opacity="0.25"></line></g><g><line x1="0" y1="178.01999950408936" x2="268.2299995422363" y2="178.01999950408936" fill="rgb(0, 0, 0)" stroke="rgb(60, 60, 60)" stroke-width="1px" opacity="0.25"></line><line x1="0" y1="158.23999955919055" x2="268.2299995422363" y2="158.23999955919055" fill="rgb(0, 0, 0)" stroke="rgb(60, 60, 60)" stroke-width="1px" opacity="0.25"></line><line x1="0" y1="138.45999961429172" x2="268.2299995422363" y2="138.45999961429172" fill="rgb(0, 0, 0)" stroke="rgb(60, 60, 60)" stroke-width="1px" opacity="0.25"></line><line x1="0" y1="118.67999966939291" x2="268.2299995422363" y2="118.67999966939291" fill="rgb(0, 0, 0)" stroke="rgb(60, 60, 60)" stroke-width="1px" opacity="0.25"></line><line x1="0" y1="98.89999972449408" x2="268.2299995422363" y2="98.89999972449408" fill="rgb(0, 0, 0)" stroke="rgb(60, 60, 60)" stroke-width="1px" opacity="0.25"></line><line x1="0" y1="79.11999977959526" x2="268.2299995422363" y2="79.11999977959526" fill="rgb(0, 0, 0)" stroke="rgb(60, 60, 60)" stroke-width="1px" opacity="0.25"></line><line x1="0" y1="59.33999983469644" x2="268.2299995422363" y2="59.33999983469644" fill="rgb(0, 0, 0)" stroke="rgb(60, 60, 60)" stroke-width="1px" opacity="0.25"></line><line x1="0" y1="39.559999889797666" x2="268.2299995422363" y2="39.559999889797666" fill="rgb(0, 0, 0)" stroke="rgb(60, 60, 60)" stroke-width="1px" opacity="0.25"></line><line x1="0" y1="19.779999944898805" x2="268.2299995422363" y2="19.779999944898805" fill="rgb(0, 0, 0)" stroke="rgb(60, 60, 60)" stroke-width="1px" opacity="0.25"></line><line x1="0" y1="0" x2="268.2299995422363" y2="0" fill="rgb(0, 0, 0)" stroke="rgb(60, 60, 60)" stroke-width="1px" opacity="0.25"></line></g></g></g><g><g><line x1="0" y1="158.23999955919055" x2="268.2299995422363" y2="158.23999955919055" fill="rgb(0, 0, 0)" stroke="rgb(153, 153, 153)" stroke-width="1.5px"></line></g></g><g><g><line x1="22.352499961853027" y1="0" x2="22.352499961853027" y2="178.01999950408936" fill="rgb(0, 0, 0)" stroke="rgb(153, 153, 153)" stroke-width="1.5px"></line></g></g><g><g><g><g><g><path style="fill: none;" stroke="rgb(51, 187, 238)" stroke-width="2px" d="M25.92889995574951,-28.339386551234952L26.152424955368044,22.31367945888394L26.599474954605103,4.874147659448624L27.046524953842162,31.73344411560808L27.270049953460695,35.846154978843174L27.717099952697755,19.70814483940981L28.164149951934814,20.297998164690654L28.387674951553347,40.66836815107578L28.834724950790406,48.68066155076755L29.281774950027465,10.364906655989358L29.505299949645995,22.00588566527921L29.952349948883057,22.673396768741952L30.175874948501587,52.72458852579538L30.622924947738646,53.91136964054493L31.06997494697571,79.55893870348741L31.29349994659424,75.38767309977094L31.740549945831297,25.4255154696053L32.18759994506836,45.0177528987345L32.41112494468689,72.1379819470864L32.85817494392395,74.68558611724654L33.30522494316101,80.40712588015222L33.52874994277954,82.25529680624646L33.97579994201661,96.10631809652517L34.19932494163513,90.18535644245144L34.64637494087219,80.23373651433944L35.09342494010925,96.95850615301649L35.31694993972778,95.21836672031583L35.763999938964844,92.68159138541421L36.21104993820191,92.34267965225177L36.434574937820436,86.52985249029297L36.881624937057495,90.1287507239141L37.10514993667603,82.0336823336613L37.55219993591309,83.32539565388193L37.99924993515015,97.44992282310598L38.22277493476867,92.1201509824971L38.66982493400574,86.23120148029939L39.1168749332428,44.85704037763779L39.34039993286133,58.49550932270019L39.78744993209839,76.80250557381883L40.23449993133545,65.22966758021195L40.45802493095398,75.02737578274599L40.90507493019104,81.16070751543211L41.12859992980957,93.73205693370728L41.575649929046634,101.18340869493893L42.02269992828369,109.88444079086916L42.24622492790222,98.38620440850545L42.693274927139285,86.13726119626338L43.140324926376344,90.40456814731083L43.36384992599487,94.1372002132521L43.81089992523193,89.03585981621441L44.257949924468996,90.30936580249117L44.48147492408752,89.38239077483873L44.704999923706055,95.56760676214046L44.92852492332459,96.14219009717996L45.37557492256165,100.22583896111739L45.59909992218018,97.34196375705218L46.04614992141723,108.43983859642182L46.4931999206543,107.37169743425088L46.716724920272824,108.55598705309815L47.16377491950989,103.36890413336997L47.61082491874694,109.53127637880233L47.83434991836548,98.80242791935862L48.281399917602535,101.93594774359417L48.504924917221075,98.54828325891957L48.95197491645813,104.31836493447187L49.39902491569519,111.56407129977083L49.62254991531372,106.36449782340316L50.069599914550786,100.21880168698144L50.51664991378784,103.40943172344741L50.74017491340638,97.71853482101552L51.18722491264343,98.21310044518131L51.634274911880496,100.64425023975558L51.85779991149902,101.41846714178192L52.30484991073609,109.64925748743411L52.528374910354614,112.74961070597406L52.97542490959168,108.27961296887004L53.42247490882873,109.24624606947107L53.645999908447266,109.08963467621878L54.093049907684325,98.01347476891797L54.54009990692139,98.96870626057698L54.76362490653992,108.12479503229L55.210674905776976,97.35429424318701L55.657724905014035,98.41560370586566L55.88124990463257,95.36123625785957L56.32829990386963,104.54239962603198L56.55182490348816,111.85275131467132L56.99887490272522,107.04144708783286L57.44592490196228,95.38711442808372L57.66944990158081,104.06037639072136L58.11649990081787,107.17499554867351L58.56354990005493,114.03033903887874L58.78707489967346,120.99209018760862L59.23412489891052,101.70813558082374L59.457649898529056,103.10506177111782L59.904699897766115,98.30221439596406L60.351749897003174,108.1023488452973L60.5752748966217,99.10402334908058L61.022324895858766,110.27143717284883L61.469374895095825,92.03475463535973L61.69289989471436,103.68184468810382L62.13994989395142,105.6552002592058L62.58699989318848,111.52680661824819L62.810524892807,97.41727908046448L63.25757489204407,118.30193115832796L63.481099891662595,112.50269866446703L63.92814989089966,114.66868364528356L64.37519989013671,109.04979822197456L64.59872488975525,106.47304192535181L65.04577488899231,113.16106461692888L65.49282488822936,113.05879636682216L65.7163498878479,103.7392896631773L66.16339988708496,97.95575382628202L66.61044988632202,101.26802793185566L66.83397488594055,95.26302153632396L67.05749988555908,98.0000969024728L67.28102488517762,105.7315727260604L67.72807488441467,99.23696224092404L67.95159988403321,94.68318878492917L68.39864988327027,86.74506835490831L68.84569988250732,110.69299685538653L69.06922488212585,94.92513325879949L69.51627488136292,97.48120427274439L69.96332488059997,97.78376346909211L70.1868498802185,104.82596854193046L70.63389987945556,106.29668027847383L70.85742487907409,100.29392530014024L71.30447487831115,109.39855249282873L71.75152487754822,95.45429000844148L71.97504987716674,94.00961176025895L72.42209987640382,99.62022632736671L72.86914987564087,103.03287886989251L73.0926748752594,110.13490299845576L73.53972487449646,102.8953795827575L73.98677487373352,102.2464396008787L74.21029987335206,106.73878766378955L74.65734987258911,113.60429988341447L74.88087487220764,111.43168049707728L75.3279248714447,102.87648516405505L75.77497487068176,113.57944916268848L75.9984998703003,121.90407454560338L76.44554986953734,115.66075175451424L76.89259986877441,109.9594184911224L77.11612486839294,115.4656713696713L77.56317486763001,114.75113695283014L78.01022486686706,95.33002324941044L78.2337498664856,102.38891212810113L78.68079986572266,101.1941957604663L78.9043248653412,91.25401925090348L79.35137486457825,94.7379455966689L79.7984248638153,92.99853856260478L80.02194986343385,100.40985858533075L80.4689998626709,102.56783360644329L80.91604986190796,103.58308101812057L81.13957486152648,105.0629473636928L81.58662486076355,114.9835035499114L81.81014986038208,117.6729161519958L82.25719985961913,124.32410374533902L82.7042498588562,98.55170895406623L82.92777485847472,107.87758683607977L83.3748248577118,105.06812038392923L83.82187485694885,111.18678324061318L84.04539985656739,115.54048503295826L84.49244985580444,107.40981058130548L84.9394998550415,116.68806049477348L85.16302485466004,109.4590666334365L85.61007485389709,111.57922012693646L85.83359985351562,108.47862915120635L86.28064985275269,110.95111843405363L86.72769985198974,97.67251220215762L86.95122485160827,103.61442243273828L87.39827485084533,115.21913620476084L87.8453248500824,106.3731582319663L88.06884984970092,107.73287356732976L88.51589984893799,118.66796731396245L88.96294984817504,108.73262447573377L89.18647484779359,104.9902529939391L89.40999984741211,100.90597225359193L89.63352484703064,100.3210849264298L90.0805748462677,108.18999871264785L90.30409984588623,106.3616333701598L90.7511498451233,111.58241654348411L91.19819984436036,112.52776678484922L91.42172484397888,107.03877692056336L91.86877484321595,109.34680036844944L92.31582484245301,101.48124405584535L92.53934984207153,110.33608616347274L92.9863998413086,112.81978753821586L93.20992484092712,119.19237180147823L93.65697484016418,124.00852909190006L94.10402483940125,110.18418101156192L94.32754983901978,103.07900074283316L94.77459983825683,105.53190425398053L95.22164983749389,106.36375945719857L95.44517483711243,111.98387185938323L95.89222483634948,113.31671824162831L96.33927483558655,110.1716065839023L96.56279983520507,114.4308387137904L97.00984983444215,120.88802323594322L97.23337483406067,125.07059149986748L97.68042483329774,114.11571811523908L98.12747483253479,115.75170228122995L98.35099983215332,120.75259947924528L98.79804983139039,124.47356155333247L99.24509983062744,127.51859593233134L99.46862483024597,107.6155511925436L99.91567482948304,111.87713146298077L100.36272482872009,110.36889366202914L100.58624982833862,111.51752317299598L101.03329982757568,112.47217177698798L101.25682482719421,109.6378078535695L101.70387482643127,119.77927743422373L102.15092482566834,106.90460071869111L102.37444982528686,99.8777301404846L102.82149982452393,111.90471410755563L103.26854982376099,117.212094813369L103.49207482337951,104.1897383452186L103.93912482261658,99.09871277790587L104.1626498222351,92.06353422822515L104.60969982147218,101.78903389230831L105.05674982070923,111.18750118281832L105.28027482032776,109.78539692041696L105.72732481956481,118.48048104911922L106.17437481880188,120.30355796175284L106.39789981842041,107.47968232226553L106.84494981765747,105.25982764748836L107.29199981689453,92.30088757352118L107.51552481651306,104.44454318019969L107.96257481575013,120.05673807425046L108.18609981536865,123.72552654602555L108.63314981460572,119.85288249998364L109.08019981384278,112.93061582290144L109.3037248134613,117.92664509836558L109.75077481269837,106.08339521690004L110.19782481193542,116.37857068401823L110.42134981155395,123.28715781388883L110.86839981079102,113.55612818675145L111.31544981002807,124.47684779795514L111.5389748096466,106.05386578281147L111.76249980926514,118.0294941823255L111.98602480888366,123.14764865418442L112.43307480812074,119.5074305368638L112.65659980773925,121.15871866392288L113.10364980697632,115.16448824172392L113.55069980621339,116.37661981629856L113.77422480583192,115.97788750879656L114.22127480506897,92.84349126960835L114.66832480430602,68.07670752361078L114.89184980392456,85.5383321054406L115.33889980316162,95.44041269014726L115.56242480278016,88.3858514058909L116.00947480201721,97.46742568239868L116.45652480125426,100.65211582765471L116.68004980087281,92.92866895043079L117.12709980010986,95.9651411265821L117.57414979934693,95.94449995360566L117.79767479896545,109.59363807929347L118.24472479820253,104.04881380293502L118.69177479743958,95.16367169234088L118.91529979705811,103.37578315135534L119.36234979629516,106.52134175098514L119.5858747959137,114.24616289039025L120.03292479515076,116.09757252357306L120.47997479438781,101.99743517975745L120.70349979400635,121.1190938798847L121.1505497932434,117.26857603192073L121.59759979248047,121.0503520057766L121.821124792099,109.63559951440529L122.26817479133605,122.40974203616389L122.71522479057313,113.57289516911565L122.93874979019165,104.0301880393842L123.38579978942872,104.16089573440046L123.60932478904724,104.75308735697229L124.0563747882843,95.10207005629655L124.50342478752137,115.7235790646559L124.7269497871399,114.32182673183684L125.17399978637695,122.86257175766855L125.621049785614,122.80542803306315L125.84457478523255,113.19867559010315L126.2916247844696,122.56005015258435L126.51514978408814,117.55206451310497L126.96219978332519,108.15756034713162L127.40924978256226,100.4586186802377L127.63277478218079,91.33476950111259L128.07982478141784,102.60288786233284L128.5268747806549,104.89720985113028L128.75039978027343,103.56077730472687L129.1974497795105,102.69014493359629L129.64449977874756,103.74181416722865L129.8680247783661,102.51676980335252L130.31507477760314,100.79643728540975L130.5385997772217,114.60696579899601L130.98564977645873,107.4264029394204L131.4326997756958,106.98036348844616L131.65622477531434,107.9773932079649L132.10327477455138,108.84613386583254L132.55032477378845,101.78756782771688L132.773849773407,109.71557888530238L133.22089977264403,110.84618534274892L133.6679497718811,105.46821362542684L133.89147477149962,113.71825582864895L134.11499977111816,120.50581117577354L134.3385247707367,114.22446063384223L134.78557476997375,112.05161030588503L135.00909976959227,111.08498519129873L135.45614976882933,114.94418913279088L135.90319976806643,112.31501686724792L136.12672476768492,108.81711298764228L136.57377476692199,117.92030568378053L137.02082476615905,110.95709171460024L137.2443497657776,113.92469947812614L137.69139976501464,116.07794998934042L137.91492476463318,108.50639300077327L138.36197476387025,110.11174156578855L138.8090247631073,114.15392442761922L139.03254976272584,122.46144251514016L139.4795997619629,117.81719455495774L139.92664976119994,124.3956498467052L140.15017476081846,125.77358735407628L140.59722476005555,109.72812072725009L141.04427475929262,111.14528101220982L141.2677997589111,118.59433193883751L141.71484975814818,114.30646802231546L141.93837475776672,109.24167655022691L142.3854247570038,99.04757430740524L142.83247475624083,113.2606408769738L143.05599975585938,115.60104045475217L143.50304975509644,112.71403663785995L143.95009975433348,113.02897078289504L144.17362475395203,115.8899579846058L144.6206747531891,113.07857642645116L145.06772475242616,106.32477643758921L145.29124975204468,102.6390928663403L145.73829975128174,98.76948437903238L145.96182475090026,112.04500695469935L146.40887475013733,113.63718859596578L146.8559247493744,91.99909915013573L147.07944974899291,81.81806167008224L147.52649974822998,102.86380008545659L147.97354974746705,108.34830295594922L148.19707474708557,110.36653317787611L148.64412474632263,112.563517020518L148.86764974594118,120.33628094909501L149.31469974517822,106.4679091546725L149.76174974441528,111.15912921876746L149.98527474403383,104.12083910417438L150.43232474327087,114.8850092515421L150.87937474250793,117.18726023469878L151.10289974212648,117.58472264826982L151.54994974136352,116.69008696417153L151.9969997406006,117.97759858240927L152.2205247402191,112.40535169469806L152.6675747394562,117.22254263593234L152.8910997390747,128.46791174217228L153.33814973831176,112.66573872526315L153.78519973754882,114.51597151185732L154.00872473716737,116.78193441580778L154.4557747364044,119.09560456572706L154.90282473564147,124.53903613388724L155.12634973526002,126.54284017185387L155.57339973449706,117.44540928515931L156.02044973373413,119.97187340668737L156.24397473335267,115.22271621861043L156.4674997329712,105.91599042002711L156.6910247325897,109.6513811206703L157.13807473182678,114.13837176753867L157.36159973144532,106.81349926972112L157.8086497306824,114.73346116080249L158.25569972991943,107.06664351480408L158.47922472953795,115.97929733938665L158.92627472877504,118.74937510389253L159.37332472801208,118.00535964313897L159.5968497276306,117.36560061539535L160.0438997268677,113.17820729071742L160.2674247264862,115.35344831460765L160.71447472572325,116.74917247865771L161.16152472496032,112.3638573128462L161.38504972457886,113.05730744549521L161.83209972381593,116.57432448524017L162.27914972305297,111.1551860884277L162.50267472267151,119.48388797546632L162.94972472190858,122.83689788556805L163.39677472114562,113.92696147940818L163.62029972076417,119.7288747482452L164.06734972000123,112.35689109088287L164.29087471961975,99.32952496090665L164.73792471885682,99.1535241234434L165.18497471809388,98.53125337747255L165.4084997177124,99.26654907216975L165.85554971694944,103.39904025060869L166.30259971618653,113.60704791097122L166.52612471580505,110.80178369272382L166.97317471504212,101.28479025234371L167.42022471427916,108.48429997581296L167.6437497138977,118.2756182294865L168.09079971313477,122.32261163532917L168.3143247127533,128.2052341731383L168.76137471199036,134.27602769918923L169.20842471122742,129.97385106090363L169.43194971084597,127.71334107948624L169.878999710083,131.28538242830894L170.32604970932007,127.2472076717506L170.5495747089386,124.11394091886885L170.99662470817566,128.97183240476065L171.22014970779418,127.52500863640505L171.66719970703124,125.51513721482836L172.1142497062683,117.73717529009313L172.33777470588683,121.91533060269L172.7848247051239,123.79963104775126L173.23187470436096,134.2166367427158L173.45539970397948,125.18575157699591L173.90244970321655,131.61135615293162L174.3494997024536,123.8673497602887L174.57302470207216,115.76731155749984L175.0200747013092,120.90250239300534L175.24359970092772,121.87347503800305L175.6906497001648,112.89194106801199L176.13769969940185,110.52544758680608L176.36122469902037,119.92224084895383L176.80827469825746,115.48628898159166L177.25532469749453,113.4320310245512L177.47884969711302,111.59793271969072L177.9258996963501,121.67590063892325L178.37294969558718,120.71673940953052L178.5964746952057,113.66000715599696L178.81999969482422,102.67504211635594L179.04352469444274,109.58417399857946L179.4905746936798,110.73571480196759L179.71409969329835,113.26783741031352L180.1611496925354,115.58838695952196L180.60819969177246,122.55375306257511L180.831724691391,122.18953947167562L181.27877469062804,126.45993001438607L181.7258246898651,112.48662091152043L181.94934968948365,109.70768112680973L182.39639968872072,121.27010576241298L182.6199246883392,112.53379392525697L183.0669746875763,104.12692188413467L183.51402468681337,107.279548626316L183.7375496864319,106.62655599699627L184.18459968566893,114.41047296419717L184.63164968490602,114.69128802916549L184.85517468452454,123.20709308052166L185.30222468376158,115.73016723624204L185.74927468299865,104.48516477114931L185.9727996826172,104.13855468455527L186.41984968185423,115.7939696806255L186.64337468147278,120.51532446805896L187.09042468070984,119.45744555615725L187.5374746799469,121.61095549580375L187.76099967956543,118.77873197118045L188.2080496788025,119.6382557670639L188.65509967803956,123.35827301194819L188.87862467765808,115.87807045605943L189.32567467689515,116.6065531541934L189.7727246761322,105.42936027637164L189.99624967575073,113.9527675584435L190.44329967498777,113.50655274850372L190.66682467460632,114.8634905458602L191.11387467384338,103.41089084536112L191.56092467308042,114.70109444285316L191.78444967269897,120.42674906576332L192.23149967193604,117.90095213384572L192.6785496711731,126.97991456706491L192.90207467079162,120.40093469658876L193.3491246700287,122.16266689936893L193.57264966964723,121.36403906426484L194.0196996688843,127.29496633920863L194.46674966812134,127.01933795127522L194.69027466773986,122.23987877077656L195.13732466697695,126.55822557626003L195.584374666214,123.05818005802729L195.8078996658325,115.82953725687118L196.25494966506957,118.11392106604593L196.70199966430664,122.63461019193156L196.92552466392516,129.2231454712142L197.37257466316223,127.62624542605022L197.59609966278077,112.83546616795469L198.0431496620178,120.36486104300491L198.49019966125488,122.03668298869061L198.71372466087342,124.57406371628444L199.1607746601105,126.43383808432505L199.60782465934753,123.07364520456018L199.83134965896608,115.00401606797595L200.27839965820314,122.63486116637937L200.72544965744018,120.49782667126006L200.9489746570587,129.38497495350668L201.17249965667725,123.59848455979773L201.3960246562958,123.61342623764997L201.84307465553283,117.7463054637781L202.06659965515135,121.97634676428217L202.51364965438842,116.12979903144321L202.9606996536255,125.86112905397832L203.184224653244,123.28790569238842L203.63127465248107,122.34468697271176L204.07832465171813,117.3467802976698L204.30184965133668,118.75310594151384L204.74889965057372,123.96002287290162L204.97242465019227,130.30769852901253L205.41947464942933,131.09120515875912L205.86652464866637,112.50748386342144L206.09004964828492,112.39698869131632L206.53709964752198,123.40893172826745L206.98414964675902,121.97454996744416L207.20767464637754,121.36819297331837L207.65472464561464,111.37991660891299L208.1017746448517,112.97444375068636L208.3252996444702,113.13501998260976L208.77234964370726,114.55015197261525L208.9958746433258,118.08788591865502L209.44292464256287,116.5577253758488L209.8899746417999,125.7563772104189L210.11349964141846,127.87009748224983L210.56054964065552,114.57913596374728L211.00759963989256,120.10673833146399L211.2311246395111,125.88714514872292L211.67817463874817,126.46548188630675L212.12522463798524,134.50911800332375L212.34874963760376,137.3515127742483L212.79579963684083,125.26256830259948L213.01932463645934,127.10629209113628L213.4663746356964,122.60213180295031L213.91342463493348,121.04178859043573L214.136949634552,117.51747720913528L214.58399963378906,115.7584721829843L215.03104963302613,116.90760678378314L215.25457463264465,111.90546348047293L215.7016246318817,117.19075983656457L215.92514963150026,126.70786827815655L216.3721996307373,125.30636097097789L216.81924962997437,124.19142482167507L217.0427746295929,121.25211485923975L217.48982462882995,125.5142854200432L217.93687462806702,133.11960081417885L218.16039962768556,129.4327199823055L218.6074496269226,114.03428964927052L219.05449962615967,111.0959209354482L219.2780246257782,119.77223149719103L219.72507462501528,124.99014216847867L219.94859962463377,119.31676796575104L220.39564962387084,108.94432397128168L220.8426996231079,108.45023699501344L221.06622462272645,110.8323961265182L221.5132746219635,110.67089406632687L221.96032462120056,101.65920580545445L222.1838496208191,107.36976081017117L222.63089962005614,119.35476775732539L223.0779496192932,121.31937258181517L223.30147461891175,108.3866807696922L223.52499961853027,106.4207142430155L223.7485246181488,110.85783274631194L224.19557461738586,114.57440659737082L224.4190996170044,120.9262178022131L224.86614961624147,128.8176565906399L225.3131996154785,123.44281758189251L225.53672461509703,122.05258517564977L225.98377461433412,124.94412896733336L226.43082461357116,112.21205336543106L226.65434961318968,99.49744113991864L227.10139961242677,82.24101512750774L227.3249246120453,91.18441318825725L227.77197461128233,106.81189564758918L228.2190246105194,103.84655488534148L228.44254961013795,108.30463732401255L228.889599609375,112.66497409459842L229.33664960861205,110.42735287374549L229.5601746082306,110.28706549619427L230.00722460746766,118.89043909303095L230.4542746067047,128.35938872069298L230.67779960632325,116.4006332494204L231.1248496055603,121.00986589234537L231.34837460517883,123.47467571394014L231.7954246044159,127.34792971976486L232.24247460365297,121.31926217519265L232.46599960327148,124.22087198967844L232.91304960250852,133.1817168097176L233.36009960174562,129.05806138154466L233.58362460136414,120.27589106931845L234.0306746006012,116.38490919511348L234.47772459983824,114.32978398533886L234.7012495994568,111.42803085759273L235.14829959869385,109.87129037780528L235.37182459831237,119.65304939643389L235.81887459754944,118.50607296957568L236.2659245967865,121.31114109920776L236.48944959640505,125.26515510917191L236.9364995956421,121.52429498542008L237.38354959487916,112.24445822559187L237.60707459449767,117.72802167705298L238.05412459373474,120.08223836763278L238.27764959335326,125.25261934631062L238.72469959259033,123.67628590294316L239.1717495918274,127.65167455619542L239.3952745914459,118.03724473259163L239.84232459068298,115.70441566214015L240.28937458992004,100.7161278220393L240.51289958953856,104.60521088026617L240.95994958877563,114.44497354291951L241.4069995880127,115.80338477965151L241.63052458763124,118.41416965792699L242.07757458686828,120.24688666156894L242.3010995864868,107.59848122825488L242.7481495857239,112.47214827536024L243.19519958496093,115.49932207922666L243.41872458457945,123.70071901646523L243.86577458381655,125.3411451659222L244.3128245830536,129.34110388681188L244.5363495826721,129.70657397976146L244.98339958190917,135.59904711747868L245.43044958114626,136.1283390205665L245.65397458076478,122.38786945431752" fill="none"></path></g></g></g></g><g opacity="0.2"><g><g><g><path style="fill: none;" stroke="rgb(51, 187, 238)" stroke-width="2px" d="M24.140699958801267,-54.83099014147524L24.3642249584198,22.814944074971294L24.81127495765686,8.894389788765267L25.25832495689392,41.979365028622084L25.481849956512452,28.716489925855228L25.92889995574951,-52.90014533326874L26.152424955368044,98.01762672567466L26.599474954605103,-21.228206942550656L27.046524953842162,71.9697686419724L27.270049953460695,42.01038693646129L27.717099952697755,-4.487488594667383L28.164149951934814,21.182528546452914L28.387674951553347,71.21875109592064L28.834724950790406,60.69788105804946L29.281774950027465,-47.10522347441167L29.505299949645995,39.46671576025909L29.952349948883057,23.674641459198853L30.175874948501587,97.80078285301632L30.622924947738646,55.69152725411551L31.06997494697571,118.03011000595728L31.29349994659424,69.13079248273856L31.740549945831297,-49.517593136175265L32.18759994506836,74.40607896372875L32.41112494468689,112.81830053805038L32.85817494392395,78.50699096446465L33.30522494316101,88.98943362718589L33.52874994277954,85.02755282766371L33.97579994201661,116.88284837840948L34.19932494163513,81.30391438544713L34.64637494087219,65.30630704985995L35.09342494010925,122.04566017976609L35.31694993972778,92.60815759818763L35.763999938964844,88.87642840661064L36.21104993820191,91.83431205439578L36.434574937820436,77.81061176678051L36.881624937057495,95.52709806712954L37.10514993667603,69.8910797580211L37.55219993591309,85.26296563328042L37.99924993515015,118.63671357082464L38.22277493476867,84.1254932229688L38.66982493400574,77.39777722792104L39.1168749332428,-17.204201272484L39.34039993286133,78.95321273952824L39.78744993209839,104.26299994988028L40.23449993133545,47.870410590035505L40.45802493095398,89.72393808642822L40.90507493019104,90.36070511441665L41.12859992980957,112.58908106106522L41.575649929046634,112.36043633676687L42.02269992828369,122.9359889347508L42.24622492790222,81.13884983497073L42.693274927139285,67.7638463779072L43.140324926376344,96.80552857388052L43.36384992599487,99.73614831216331L43.81089992523193,81.38384922065842L44.257949924468996,92.21962478190623L44.48147492408752,87.9919282333601L44.704999923706055,104.84543074309289L44.92852492332459,97.00406509973924L45.37557492256165,106.3513122570235L45.59909992218018,93.01615095095438L46.04614992141723,125.08665085547625L46.4931999206543,105.76948569099444L46.716724920272824,110.33242148136904L47.16377491950989,95.5882797537777L47.61082491874694,118.77483474695092L47.83434991836548,82.70915523019303L48.281399917602535,106.63622747994751L48.504924917221075,93.46678653190767L48.95197491645813,112.97348744780031L49.39902491569519,122.43263084771925L49.62254991531372,98.56513760885166L50.069599914550786,91.00025748234884L50.51664991378784,108.19537677814638L50.74017491340638,89.18218946736766L51.18722491264343,98.95494888143L51.634274911880496,104.29097493161699L51.85779991149902,102.5797924948214L52.30484991073609,121.99544300591239L52.528374910354614,117.40014053378398L52.97542490959168,101.574616363214L53.42247490882873,110.69619572037261L53.645999908447266,108.85471758634036L54.093049907684325,81.39923490796679L54.54009990692139,100.4015534980655L54.76362490653992,121.8589281898595L55.210674905776976,81.19854305953257L55.657724905014035,100.00756789988363L55.88124990463257,90.77968508585045L56.32829990386963,118.3141446782906L56.55182490348816,122.81827884763034L56.99887490272522,99.82449074757518L57.44592490196228,77.90561543845999L57.66944990158081,117.07026933467782L58.11649990081787,111.84692428560174L58.56354990005493,124.31335427418655L58.78707489967346,131.43471691070346L59.23412489891052,72.78220367064638L59.457649898529056,105.20045105655896L59.904699897766115,91.09794333323343L60.351749897003174,122.80255051929714L60.5752748966217,85.60653510475547L61.022324895858766,127.0225579085012L61.469374895095825,64.67973082912607L61.69289989471436,121.15247976721994L62.13994989395142,108.61523361585876L62.58699989318848,120.33421615681179L62.810524892807,76.2529877737889L63.25757489204407,149.6289092751232L63.481099891662595,103.80384992367564L63.92814989089966,117.91766111650837L64.37519989013671,100.621470087011L64.59872488975525,102.60790748041771L65.04577488899231,123.19309865429447L65.49282488822936,112.90539399166208L65.7163498878479,89.76002960771001L66.16339988708496,89.28045007093907L66.61044988632202,106.23643909021612L66.83397488594055,86.25551194302645L67.05749988555908,102.10570995169607L67.28102488517762,117.32878646144175L67.72807488441467,89.49504651321952L67.95159988403321,87.85252860093688L68.39864988327027,74.83788770987704L68.84569988250732,146.61488960610384L69.06922488212585,71.27333786391891L69.51627488136292,101.31531079366177L69.96332488059997,98.23760226361368L70.1868498802185,115.389276151188L70.63389987945556,108.50274788328889L70.85742487907409,91.28979283263986L71.30447487831115,123.05549328186147L71.75152487754822,74.53789628186064L71.97504987716674,91.84259438798516L72.42209987640382,108.03614817802833L72.86914987564087,108.15185768368124L73.0926748752594,120.78793919130062L73.53972487449646,92.03609445921012L73.98677487373352,101.27302962806051L74.21029987335206,113.47730975815581L74.65734987258911,123.90256821285186L74.88087487220764,108.1727514175715L75.3279248714447,90.04369216452176L75.77497487068176,129.6338951606386L75.9984998703003,134.3910126199757L76.44554986953734,106.29576756788055L76.89259986877441,101.40741859603466L77.11612486839294,123.72505068749464L77.56317486763001,113.6793353275684L78.01022486686706,66.19835269428087L78.2337498664856,112.97724544613713L78.68079986572266,99.40212120901408L78.9043248653412,76.34375448655923L79.35137486457825,99.96383511531698L79.7984248638153,90.38942801150861L80.02194986343385,111.52683861941968L80.4689998626709,105.80479613811212L80.91604986190796,105.10595213563647L81.13957486152648,107.28274688205117L81.58662486076355,129.86433782923928L81.81014986038208,121.70703505512242L82.25719985961913,134.30088513535384L82.7042498588562,59.89311676715708L82.92777485847472,121.86640365910009L83.3748248577118,100.85392070570342L83.82187485694885,120.36477752563911L84.04539985656739,122.07103772147588L84.49244985580444,95.2137989038263L84.9394998550415,130.60543536497548L85.16302485466004,98.61557584143107L85.61007485389709,114.75945036718639L85.83359985351562,103.82774268761118L86.28064985275269,114.65985235832454L86.72769985198974,77.7546028543136L86.95122485160827,112.5272877786093L87.39827485084533,132.62620686279467L87.8453248500824,93.10419127277449L88.06884984970092,109.77244657037494L88.51589984893799,135.07060793391148L88.96294984817504,93.82961021839075L89.18647484779359,99.37669577124707L89.40999984741211,94.77955114307119L89.63352484703064,99.44375393568663L90.0805748462677,119.99336939197488L90.30409984588623,103.61908535642772L90.7511498451233,119.41359130347061L91.19819984436036,113.94579214689688L91.42172484397888,98.80529212413454L91.86877484321595,112.80883554027854L92.31582484245301,89.68290958693925L92.53934984207153,123.6183493249138L92.9863998413086,116.54533960033055L93.20992484092712,128.75124819637182L93.65697484016418,131.23276502753276L94.10402483940125,89.4476588910547L94.32754983901978,92.42123033974L94.77459983825683,109.2112595207016L95.22164983749389,107.61154226202561L95.44517483711243,120.41404046266022L95.89222483634948,115.31598781499594L96.33927483558655,105.45393909731332L96.56279983520507,120.81968690862251L97.00984983444215,130.57380001917247L97.23337483406067,131.34444389575384L97.68042483329774,97.6834080382965L98.12747483253479,118.20567853021629L98.35099983215332,128.25394527626827L98.79804983139039,130.05500466446324L99.24509983062744,132.08614750082964L99.46862483024597,77.76098408286198L99.91567482948304,118.26950186863651L100.36272482872009,108.10653696060169L100.58624982833862,113.24046743944628L101.03329982757568,113.90414468297595L101.25682482719421,105.38626196844183L101.70387482643127,134.991481805205L102.15092482566834,87.59258564539222L102.37444982528686,89.33742427317483L102.82149982452393,129.94519005816218L103.26854982376099,125.17316587208906L103.49207482337951,84.65620364299298L103.93912482261658,91.46217442693676L104.1626498222351,81.51076640370408L104.60969982147218,116.37728338843309L105.05674982070923,125.28520211858334L105.28027482032776,107.68224052681494L105.72732481956481,131.52310724217259L106.17437481880188,123.03817333070327L106.39789981842041,88.2438688630346L106.84494981765747,101.9300456353226L107.29199981689453,72.8624774625704L107.51552481651306,122.66002659021743L107.96257481575013,143.47503041532664L108.18609981536865,129.22870925368818L108.63314981460572,114.04391643092076L109.08019981384278,102.54721580727818L109.3037248134613,125.42068901156176L109.75077481269837,88.31852039470178L110.19782481193542,131.8213338846955L110.42134981155395,133.65003850869468L110.86839981079102,98.95958374604541L111.31544981002807,140.8579272147607L111.5389748096466,78.41939276009595L111.76249980926514,135.99293678159654L111.98602480888366,130.82488036197282L112.43307480812074,114.04710336088286L112.65659980773925,123.63565085451151L113.10364980697632,106.17314260842548L113.55069980621339,118.19481717816048L113.77422480583192,115.37978904754357L114.22127480506897,58.14189691082606L114.66832480430602,30.92653190461442L114.89184980392456,111.73076897818534L115.33889980316162,110.2935335672072L115.56242480278016,77.80400947950642L116.00947480201721,111.08978709716034L116.45652480125426,105.42915104553873L116.68004980087281,81.34349863459491L117.12709980010986,100.51984939080904L117.57414979934693,95.91353819414103L117.79767479896545,130.06734526782515L118.24472479820253,95.73157738839734L118.69177479743958,81.8359585264497L118.91529979705811,115.69395033987702L119.36234979629516,111.23967965042986L119.5858747959137,125.83339459949791L120.03292479515076,118.87468697334732L120.47997479438781,80.847229164034L120.70349979400635,149.8015819300756L121.1505497932434,111.49279925997476L121.59759979248047,126.72301596656038L121.821124792099,92.5134707773483L122.26817479133605,141.57095581880176L122.71522479057313,100.31762486854333L122.93874979019165,89.716127344787L123.38579978942872,104.35695727692483L123.60932478904724,105.64137479083004L124.0563747882843,80.62554410528293L124.50342478752137,146.65584257719487L124.7269497871399,112.21919823260828L125.17399978637695,135.6736892964161L125.621049785614,122.71971244615506L125.84457478523255,98.78854692566314L126.2916247844696,136.60211199630615L126.51514978408814,110.04008605388587L126.96219978332519,94.0658040981716L127.40924978256226,88.91020617989682L127.63277478218079,77.64899573242495L128.07982478141784,119.50506540416316L128.5268747806549,108.3386928343265L128.75039978027343,101.55612848512172L129.1974497795105,101.3841963769004L129.64449977874756,105.3193180176772L129.8680247783661,100.67920325753833L130.31507477760314,98.21593850849558L130.5385997772217,135.3227585693754L130.98564977645873,96.655558650057L131.4326997756958,106.31130431198481L131.65622477531434,109.47293778724297L132.10327477455138,110.14924485263403L132.55032477378845,91.19971877054336L132.773849773407,121.60759547168065L133.22089977264403,112.54209502891877L133.6679497718811,97.40125604944369L133.89147477149962,126.0933191334821L134.11499977111816,130.68714419646045L134.3385247707367,104.80243482094524L134.78557476997375,108.79233481394925L135.00909976959227,109.63504751941926L135.45614976882933,120.73299504502916L135.90319976806643,108.37125846893345L136.12672476768492,103.57025716823381L136.57377476692199,131.57509472798787L137.02082476615905,100.51227076082981L137.2443497657776,118.37611112341499L137.69139976501464,119.30782575616186L137.91492476463318,97.14905751792253L138.36197476387025,112.51976441331148L138.8090247631073,120.21719872036519L139.03254976272584,134.92271964642157L139.4795997619629,110.8508226146841L139.92664976119994,134.2633327843264L140.15017476081846,127.84049361513289L140.59722476005555,85.65992078701079L141.04427475929262,113.2710214396494L141.2677997589111,129.76790832877904L141.71484975814818,107.87467214753237L141.93837475776672,101.64448934209409L142.3854247570038,83.75642094317274L142.83247475624083,134.5802407313266L143.05599975585938,119.11163982141971L143.50304975509644,108.38353091252162L143.95009975433348,113.5013720004477L144.17362475395203,120.18143878717193L144.6206747531891,108.8615040892192L145.06772475242616,96.19407645429627L145.29124975204468,97.11056750946696L145.73829975128174,92.96507164807048L145.96182475090026,131.9582908181998L146.40887475013733,116.02546105786541L146.8559247493744,59.54196498139069L147.07944974899291,66.54650545000202L147.52649974822998,134.43240770851813L147.97354974746705,116.57505726168814L148.19707474708557,113.39387851076646L148.64412474632263,115.85899278448085L148.86764974594118,131.9954268419605L149.31469974517822,85.6653514630387L149.76174974441528,118.19595931490991L149.98527474403383,93.56340393228474L150.43232474327087,131.0312644725937L150.87937474250793,120.6406367094338L151.10289974212648,118.18091626862636L151.54994974136352,115.34813343802406L151.9969997406006,119.90886600976589L152.2205247402191,104.04698136313121L152.6675747394562,124.44832904778377L152.8910997390747,145.33596540153215L153.33814973831176,88.96247919989949L153.78519973754882,117.29132069174855L154.00872473716737,120.1808787717335L154.4557747364044,122.56610979060594L154.90282473564147,132.70418348612753L155.12634973526002,129.54854622880384L155.57339973449706,103.79926295511747L156.02044973373413,123.76156958897944L156.24397473335267,108.09898043649501L156.4674997329712,91.95590172215219L156.6910247325897,115.25446717163504L157.13807473182678,120.86885773784125L157.36159973144532,95.82619052299478L157.8086497306824,126.61340399742454L158.25569972991943,95.56641704580647L158.47922472953795,129.3482780762605L158.92627472877504,122.90449175065136L159.37332472801208,116.88933645200862L159.5968497276306,116.4059620737799L160.0438997268677,106.89711730370055L160.2674247264862,118.616309850443L160.71447472572325,118.84275872473279L161.16152472496032,105.78588456412892L161.38504972457886,114.09748264446873L161.83209972381593,121.84985004485762L162.27914972305297,103.02647849320896L162.50267472267151,131.97694080602426L162.94972472190858,127.86641275072063L163.39677472114562,100.5620568701684L163.62029972076417,128.43174465150074L164.06734972000123,101.2989156048394L164.29087471961975,79.78847576594234L164.73792471885682,98.8895228672485L165.18497471809388,97.59784725851628L165.4084997177124,100.36949261421555L165.85554971694944,109.5977770182671L166.30259971618653,128.91905940151497L166.52612471580505,106.59388736535273L166.97317471504212,87.00930009177358L167.42022471427916,119.28356456101685L167.6437497138977,132.96259560999675L168.09079971313477,128.3931017440932L168.3143247127533,137.029167979852L168.76137471199036,143.3822179882656L169.20842471122742,123.52058610347521L169.43194971084597,124.32257610736012L169.878999710083,136.64344445154296L170.32604970932007,121.18994553691314L170.5495747089386,119.41404078954619L170.99662470817566,136.25866963359837L171.22014970779418,125.35477298387164L171.66719970703124,122.50033008246334L172.1142497062683,106.0702324029903L172.33777470588683,128.18256357158532L172.7848247051239,126.62608171534316L173.23187470436096,149.8421452851626L173.45539970397948,111.6394238284161L173.90244970321655,141.24976301683517L174.3494997024536,112.25134017132433L174.57302470207216,103.61725425331656L175.0200747013092,128.60528864626357L175.24359970092772,123.32993400549962L175.6906497001648,99.4196401130254L176.13769969940185,106.9757073649972L176.36122469902037,134.01743074217546L176.80827469825746,108.8323611805484L177.25532469749453,110.35064408899049L177.47884969711302,108.8467852624L177.9258996963501,136.79285251777202L178.37294969558718,119.27799756544144L178.5964746952057,103.07490877569663L178.81999969482422,86.19759455689439L179.04352469444274,119.94787182191476L179.4905746936798,112.46302600704979L179.71409969329835,117.06602132283238L180.1611496925354,119.06921128333467L180.60819969177246,133.0018022171548L180.831724691391,121.6432190853264L181.27877469062804,132.86551582845178L181.7258246898651,91.52665725722197L181.94934968948365,105.53927144974367L182.39639968872072,138.6137427158179L182.6199246883392,99.42932616952294L183.0669746875763,91.51661382245123L183.51402468681337,112.00848873958797L183.7375496864319,105.6470670530167L184.18459968566893,126.08634841499851L184.63164968490602,115.11251062661793L184.85517468452454,135.9808006575559L185.30222468376158,104.51477846982262L185.74927468299865,87.61766107351022L185.9727996826172,103.61863955466424L186.41984968185423,133.27709217473083L186.64337468147278,127.59735664920919L187.09042468070984,117.87062718830468L187.5374746799469,124.84122040527346L187.76099967956543,114.53039668424549L188.2080496788025,120.92754146088907L188.65509967803956,128.9382988792746L188.87862467765808,104.65776662222629L189.32567467689515,117.69927720139435L189.7727246761322,88.66357095963899L189.99624967575073,126.73787848155126L190.44329967498777,112.83723053359405L190.66682467460632,116.89889724189493L191.11387467384338,86.23199129461251L191.56092467308042,131.6363998390912L191.78444967269897,129.01523100012855L192.23149967193604,114.11225673596934L192.6785496711731,140.59835821689364L192.90207467079162,110.53246489087456L193.3491246700287,124.8052652035392L193.57264966964723,120.16609731160871L194.0196996688843,136.19135725162428L194.46674966812134,126.6058953693751L194.69027466773986,115.07069000002855L195.13732466697695,133.03574578448524L195.584374666214,117.80811178067816L195.8078996658325,104.98657305513701L196.25494966506957,121.54049677980805L196.70199966430664,129.41564388076L196.92552466392516,139.1059483901381L197.37257466316223,125.23089535830428L197.59609966278077,90.64929728081138L198.0431496620178,131.65895335558025L198.49019966125488,124.54441590721916L198.71372466087342,128.38013480767518L199.1607746601105,129.22349963638595L199.60782465934753,118.03335588491291L199.83134965896608,102.8995723630996L200.27839965820314,134.08112881398446L200.72544965744018,117.29227492858115L200.9489746570587,142.71569737687668L201.17249965667725,114.91874896923423L201.3960246562958,123.63583875442836L201.84307465553283,108.9456243029703L202.06659965515135,128.32140871503827L202.51364965438842,107.35997743218478L202.9606996536255,140.45812408778096L203.184224653244,119.42807065000362L203.63127465248107,120.92985889319677L204.07832465171813,109.84992028510682L204.30184965133668,120.86259440727989L204.74889965057372,131.7703982699833L204.97242465019227,139.82921201317887L205.41947464942933,132.266465103379L205.86652464866637,84.63190192041493L206.09004964828492,112.23124593315866L206.53709964752198,139.92684628369415L206.98414964675902,119.82297732620923L207.20767464637754,120.45865748212967L207.65472464561464,96.39750206230492L208.1017746448517,115.36623446334639L208.3252996444702,113.37588433049488L208.77234964370726,116.67284995762347L208.9958746433258,123.39448683771464L209.44292464256287,114.26248456163952L209.8899746417999,139.554354962274L210.11349964141846,131.0406778899962L210.56054964065552,94.64269368599346L211.00759963989256,128.39814188303905L211.2311246395111,134.55775537461133L211.67817463874817,127.33298699268248L212.12522463798524,146.5745721788492L212.34874963760376,141.61510493063514L212.79579963684083,107.12915159512623L213.01932463645934,129.87187777394152L213.4663746356964,115.84589137067132L213.91342463493348,118.70127377166385L214.136949634552,112.23101013718457L214.58399963378906,113.11996464375787L215.03104963302613,118.63130868498139L215.25457463264465,104.40224852550762L215.7016246318817,125.11870437070202L215.92514963150026,140.98353094054448L216.3721996307373,123.20410001020988L216.81924962997437,122.51902059772084L217.0427746295929,116.84314991558676L217.48982462882995,131.90754126124838L217.93687462806702,144.52757390538233L218.16039962768556,123.9023987344955L218.6074496269226,90.93664414971802L219.05449962615967,106.68836786471473L219.2780246257782,132.78669733980524L219.72507462501528,132.8170081754101L219.94859962463377,110.80670666165959L220.39564962387084,93.38565797957764L220.8426996231079,107.70910653061107L221.06622462272645,114.40563482377537L221.5132746219635,110.42864097603984L221.96032462120056,88.14167341414584L222.1838496208191,115.93559331724623L222.63089962005614,137.33227817805675L223.0779496192932,124.2662798185498L223.30147461891175,88.98764305150776L223.52499961853027,103.47176445300043L223.7485246181488,117.51351050125663L224.19557461738586,120.14926737395913L224.4190996170044,130.4539346094765L224.86614961624147,140.6548147732801L225.3131996154785,115.38055906877142L225.53672461509703,119.96723656628564L225.98377461433412,129.28144465485875L226.43082461357116,93.11393996257763L226.65434961318968,80.42552280164998L227.10139961242677,56.35637610889137L227.3249246120453,104.59951027938148L227.77197461128233,130.25311933658708L228.2190246105194,99.39854374196992L228.44254961013795,114.99176098201917L228.889599609375,119.20547925047721L229.33664960861205,107.0709210424661L229.5601746082306,110.07663442986744L230.00722460746766,131.79549948828594L230.4542746067047,142.56281316218605L230.67779960632325,98.46250004251151L231.1248496055603,127.92371485673284L231.34837460517883,127.17189044633231L231.7954246044159,133.1578107285019L232.24247460365297,112.27626085833433L232.46599960327148,128.57328671140715L232.91304960250852,146.62298403977638L233.36009960174562,122.8725782392852L233.58362460136414,107.10263560097913L234.0306746006012,110.54843638380603L234.47772459983824,111.24709617067694L234.7012495994568,107.07540116597352L235.14829959869385,107.53617965812411L235.37182459831237,134.3256879243768L235.81887459754944,116.78560832928838L236.2659245967865,125.51874329365585L236.48944959640505,131.19617612411815L236.9364995956421,115.9130047997923L237.38354959487916,98.32470308584958L237.60707459449767,125.95336685424463L238.05412459373474,123.6135634035025L238.27764959335326,133.00819081432738L238.72469959259033,121.311785737892L239.1717495918274,133.61475753607377L239.3952745914459,103.61559999718594L239.84232459068298,112.20517205646294L240.28937458992004,78.23369606188801L240.51289958953856,110.43883546760648L240.95994958877563,129.20461753689952L241.4069995880127,117.84100163474946L241.63052458763124,122.3303469753402L242.07757458686828,122.99596216703182L242.3010995864868,88.62587307828382L242.7481495857239,119.78264884601829L243.19519958496093,120.0400827850263L243.41872458457945,136.002814422323L243.86577458381655,127.80178439010766L244.3128245830536,135.3410419681464L244.5363495826721,130.25477911918586L244.98339958190917,144.43775682405445L245.43044958114626,136.92227687519826L245.65397458076478,101.77716510494407" fill="none"></path></g></g></g></g></g></g><g transform="translate(61, 178)" clip-path="url(#clip_1)"><clipPath id="clip_1"><rect width="268" height="21"></rect></clipPath><g><g><line x1="0" y1="0" x2="0" y2="5" style="visibility: inherit;" fill="rgb(0, 0, 0)" stroke="rgb(204, 204, 204)" stroke-width="1px"></line><line x1="22.352499961853027" y1="0" x2="22.352499961853027" y2="5" style="visibility: inherit;" fill="rgb(0, 0, 0)" stroke="rgb(204, 204, 204)" stroke-width="1px"></line><line x1="44.704999923706055" y1="0" x2="44.704999923706055" y2="5" style="visibility: inherit;" fill="rgb(0, 0, 0)" stroke="rgb(204, 204, 204)" stroke-width="1px"></line><line x1="67.05749988555908" y1="0" x2="67.05749988555908" y2="5" style="visibility: inherit;" fill="rgb(0, 0, 0)" stroke="rgb(204, 204, 204)" stroke-width="1px"></line><line x1="89.40999984741211" y1="0" x2="89.40999984741211" y2="5" style="visibility: inherit;" fill="rgb(0, 0, 0)" stroke="rgb(204, 204, 204)" stroke-width="1px"></line><line x1="111.76249980926514" y1="0" x2="111.76249980926514" y2="5" style="visibility: inherit;" fill="rgb(0, 0, 0)" stroke="rgb(204, 204, 204)" stroke-width="1px"></line><line x1="134.11499977111816" y1="0" x2="134.11499977111816" y2="5" style="visibility: inherit;" fill="rgb(0, 0, 0)" stroke="rgb(204, 204, 204)" stroke-width="1px"></line><line x1="156.4674997329712" y1="0" x2="156.4674997329712" y2="5" style="visibility: inherit;" fill="rgb(0, 0, 0)" stroke="rgb(204, 204, 204)" stroke-width="1px"></line><line x1="178.81999969482422" y1="0" x2="178.81999969482422" y2="5" style="visibility: inherit;" fill="rgb(0, 0, 0)" stroke="rgb(204, 204, 204)" stroke-width="1px"></line><line x1="201.17249965667725" y1="0" x2="201.17249965667725" y2="5" style="visibility: inherit;" fill="rgb(0, 0, 0)" stroke="rgb(204, 204, 204)" stroke-width="1px"></line><line x1="223.52499961853027" y1="0" x2="223.52499961853027" y2="5" style="visibility: inherit;" fill="rgb(0, 0, 0)" stroke="rgb(204, 204, 204)" stroke-width="1px"></line><line x1="245.8774995803833" y1="0" x2="245.8774995803833" y2="5" style="visibility: inherit;" fill="rgb(0, 0, 0)" stroke="rgb(204, 204, 204)" stroke-width="1px"></line><line x1="268.2299995422363" y1="0" x2="268.2299995422363" y2="5" style="visibility: inherit;" fill="rgb(0, 0, 0)" stroke="rgb(204, 204, 204)" stroke-width="1px"></line></g><g transform="translate(0, 8)"><text style="text-anchor: middle; visibility: hidden; font-family: &quot;Helvetica Neue&quot;, sans-serif; font-size: 12px; font-weight: 200;" x="0" y="0" dx="0em" dy="0.95em" fill="rgb(50, 49, 63)" stroke="none" stroke-width="1px">-100</text><text style="text-anchor: middle; visibility: hidden; font-family: &quot;Helvetica Neue&quot;, sans-serif; font-size: 12px; font-weight: 200;" x="22.352499961853027" y="0" dx="0em" dy="0.95em" fill="rgb(50, 49, 63)" stroke="none" stroke-width="1px">0</text><text style="text-anchor: middle; visibility: hidden; font-family: &quot;Helvetica Neue&quot;, sans-serif; font-size: 12px; font-weight: 200;" x="44.704999923706055" y="0" dx="0em" dy="0.95em" fill="rgb(50, 49, 63)" stroke="none" stroke-width="1px">100</text><text style="text-anchor: middle; visibility: hidden; font-family: &quot;Helvetica Neue&quot;, sans-serif; font-size: 12px; font-weight: 200;" x="67.05749988555908" y="0" dx="0em" dy="0.95em" fill="rgb(50, 49, 63)" stroke="none" stroke-width="1px">200</text><text style="text-anchor: middle; visibility: hidden; font-family: &quot;Helvetica Neue&quot;, sans-serif; font-size: 12px; font-weight: 200;" x="89.40999984741211" y="0" dx="0em" dy="0.95em" fill="rgb(50, 49, 63)" stroke="none" stroke-width="1px">300</text><text style="text-anchor: middle; visibility: hidden; font-family: &quot;Helvetica Neue&quot;, sans-serif; font-size: 12px; font-weight: 200;" x="111.76249980926514" y="0" dx="0em" dy="0.95em" fill="rgb(50, 49, 63)" stroke="none" stroke-width="1px">400</text><text style="text-anchor: middle; visibility: hidden; font-family: &quot;Helvetica Neue&quot;, sans-serif; font-size: 12px; font-weight: 200;" x="134.11499977111816" y="0" dx="0em" dy="0.95em" fill="rgb(50, 49, 63)" stroke="none" stroke-width="1px">500</text><text style="text-anchor: middle; visibility: hidden; font-family: &quot;Helvetica Neue&quot;, sans-serif; font-size: 12px; font-weight: 200;" x="156.4674997329712" y="0" dx="0em" dy="0.95em" fill="rgb(50, 49, 63)" stroke="none" stroke-width="1px">600</text><text style="text-anchor: middle; visibility: hidden; font-family: &quot;Helvetica Neue&quot;, sans-serif; font-size: 12px; font-weight: 200;" x="178.81999969482422" y="0" dx="0em" dy="0.95em" fill="rgb(50, 49, 63)" stroke="none" stroke-width="1px">700</text><text style="text-anchor: middle; visibility: hidden; font-family: &quot;Helvetica Neue&quot;, sans-serif; font-size: 12px; font-weight: 200;" x="201.17249965667725" y="0" dx="0em" dy="0.95em" fill="rgb(50, 49, 63)" stroke="none" stroke-width="1px">800</text><text style="text-anchor: middle; visibility: hidden; font-family: &quot;Helvetica Neue&quot;, sans-serif; font-size: 12px; font-weight: 200;" x="223.52499961853027" y="0" dx="0em" dy="0.95em" fill="rgb(50, 49, 63)" stroke="none" stroke-width="1px">900</text><text style="text-anchor: middle; visibility: hidden; font-family: &quot;Helvetica Neue&quot;, sans-serif; font-size: 12px; font-weight: 200;" x="245.8774995803833" y="0" dx="0em" dy="0.95em" fill="rgb(50, 49, 63)" stroke="none" stroke-width="1px">1k</text><text style="text-anchor: middle; visibility: hidden; font-family: &quot;Helvetica Neue&quot;, sans-serif; font-size: 12px; font-weight: 200;" x="268.2299995422363" y="0" dx="0em" dy="0.95em" fill="rgb(50, 49, 63)" stroke="none" stroke-width="1px">1.1k</text></g><line x1="0" y1="0" x2="268.2299995422363" y2="0" fill="rgb(0, 0, 0)" stroke="rgb(204, 204, 204)" stroke-width="1px"></line></g></g></g></g></svg>