<svg viewBox="0 0 901.5 400" xmlns="http://www.w3.org/2000/svg"><g><g><g><g><g><line x1="61.77000045776367" y1="378.01999950408936" x2="56.77000045776367" y2="378.01999950408936" style="visibility: inherit;" fill="rgb(0, 0, 0)" stroke="rgb(204, 204, 204)" stroke-width="1px"></line><line x1="61.77000045776367" y1="351.018570968083" x2="56.77000045776367" y2="351.018570968083" style="visibility: inherit;" fill="rgb(0, 0, 0)" stroke="rgb(204, 204, 204)" stroke-width="1px"></line><line x1="61.77000045776367" y1="324.0171424320766" x2="56.77000045776367" y2="324.0171424320766" style="visibility: inherit;" fill="rgb(0, 0, 0)" stroke="rgb(204, 204, 204)" stroke-width="1px"></line><line x1="61.77000045776367" y1="297.0157138960702" x2="56.77000045776367" y2="297.0157138960702" style="visibility: inherit;" fill="rgb(0, 0, 0)" stroke="rgb(204, 204, 204)" stroke-width="1px"></line><line x1="61.77000045776367" y1="270.0142853600638" x2="56.77000045776367" y2="270.0142853600638" style="visibility: inherit;" fill="rgb(0, 0, 0)" stroke="rgb(204, 204, 204)" stroke-width="1px"></line><line x1="61.77000045776367" y1="243.01285682405745" x2="56.77000045776367" y2="243.01285682405745" style="visibility: inherit;" fill="rgb(0, 0, 0)" stroke="rgb(204, 204, 204)" stroke-width="1px"></line><line x1="61.77000045776367" y1="216.01142828805106" x2="56.77000045776367" y2="216.01142828805106" style="visibility: inherit;" fill="rgb(0, 0, 0)" stroke="rgb(204, 204, 204)" stroke-width="1px"></line><line x1="61.77000045776367" y1="189.00999975204468" x2="56.77000045776367" y2="189.00999975204468" style="visibility: inherit;" fill="rgb(0, 0, 0)" stroke="rgb(204, 204, 204)" stroke-width="1px"></line><line x1="61.77000045776367" y1="162.00857121603832" x2="56.77000045776367" y2="162.00857121603832" style="visibility: inherit;" fill="rgb(0, 0, 0)" stroke="rgb(204, 204, 204)" stroke-width="1px"></line><line x1="61.77000045776367" y1="135.0071426800319" x2="56.77000045776367" y2="135.0071426800319" style="visibility: inherit;" fill="rgb(0, 0, 0)" stroke="rgb(204, 204, 204)" stroke-width="1px"></line><line x1="61.77000045776367" y1="108.00571414402555" x2="56.77000045776367" y2="108.00571414402555" style="visibility: inherit;" fill="rgb(0, 0, 0)" stroke="rgb(204, 204, 204)" stroke-width="1px"></line><line x1="61.77000045776367" y1="81.00428560801913" x2="56.77000045776367" y2="81.00428560801913" style="visibility: inherit;" fill="rgb(0, 0, 0)" stroke="rgb(204, 204, 204)" stroke-width="1px"></line><line x1="61.77000045776367" y1="54.00285707201277" x2="56.77000045776367" y2="54.00285707201277" style="visibility: inherit;" fill="rgb(0, 0, 0)" stroke="rgb(204, 204, 204)" stroke-width="1px"></line><line x1="61.77000045776367" y1="27.001428536006415" x2="56.77000045776367" y2="27.001428536006415" style="visibility: inherit;" fill="rgb(0, 0, 0)" stroke="rgb(204, 204, 204)" stroke-width="1px"></line><line x1="61.77000045776367" y1="0" x2="56.77000045776367" y2="0" style="visibility: inherit;" fill="rgb(0, 0, 0)" stroke="rgb(204, 204, 204)" stroke-width="1px"></line></g><g transform="translate(51.77000045776367, 0)"><text style="text-anchor: end; visibility: hidden; font-family: &quot;Helvetica Neue&quot;, sans-serif; font-size: 12px; font-weight: 200;" x="0" y="378.01999950408936" dx="0em" dy="0.3em" fill="rgb(50, 49, 63)" stroke="none" stroke-width="1px">-4e-3</text><text style="text-anchor: end; visibility: inherit; font-family: &quot;Helvetica Neue&quot;, sans-serif; font-size: 12px; font-weight: 200;" x="0" y="351.018570968083" dx="0em" dy="0.3em" fill="rgb(50, 49, 63)" stroke="none" stroke-width="1px">-2e-3</text><text style="text-anchor: end; visibility: inherit; font-family: &quot;Helvetica Neue&quot;, sans-serif; font-size: 12px; font-weight: 200;" x="0" y="324.0171424320766" dx="0em" dy="0.3em" fill="rgb(50, 49, 63)" stroke="none" stroke-width="1px">0</text><text style="text-anchor: end; visibility: inherit; font-family: &quot;Helvetica Neue&quot;, sans-serif; font-size: 12px; font-weight: 200;" x="0" y="297.0157138960702" dx="0em" dy="0.3em" fill="rgb(50, 49, 63)" stroke="none" stroke-width="1px">2e-3</text><text style="text-anchor: end; visibility: inherit; font-family: &quot;Helvetica Neue&quot;, sans-serif; font-size: 12px; font-weight: 200;" x="0" y="270.0142853600638" dx="0em" dy="0.3em" fill="rgb(50, 49, 63)" stroke="none" stroke-width="1px">4e-3</text><text style="text-anchor: end; visibility: inherit; font-family: &quot;Helvetica Neue&quot;, sans-serif; font-size: 12px; font-weight: 200;" x="0" y="243.01285682405745" dx="0em" dy="0.3em" fill="rgb(50, 49, 63)" stroke="none" stroke-width="1px">6e-3</text><text style="text-anchor: end; visibility: inherit; font-family: &quot;Helvetica Neue&quot;, sans-serif; font-size: 12px; font-weight: 200;" x="0" y="216.01142828805106" dx="0em" dy="0.3em" fill="rgb(50, 49, 63)" stroke="none" stroke-width="1px">8e-3</text><text style="text-anchor: end; visibility: inherit; font-family: &quot;Helvetica Neue&quot;, sans-serif; font-size: 12px; font-weight: 200;" x="0" y="189.00999975204468" dx="0em" dy="0.3em" fill="rgb(50, 49, 63)" stroke="none" stroke-width="1px">0.01</text><text style="text-anchor: end; visibility: inherit; font-family: &quot;Helvetica Neue&quot;, sans-serif; font-size: 12px; font-weight: 200;" x="0" y="162.00857121603832" dx="0em" dy="0.3em" fill="rgb(50, 49, 63)" stroke="none" stroke-width="1px">0.012</text><text style="text-anchor: end; visibility: inherit; font-family: &quot;Helvetica Neue&quot;, sans-serif; font-size: 12px; font-weight: 200;" x="0" y="135.0071426800319" dx="0em" dy="0.3em" fill="rgb(50, 49, 63)" stroke="none" stroke-width="1px">0.014</text><text style="text-anchor: end; visibility: inherit; font-family: &quot;Helvetica Neue&quot;, sans-serif; font-size: 12px; font-weight: 200;" x="0" y="108.00571414402555" dx="0em" dy="0.3em" fill="rgb(50, 49, 63)" stroke="none" stroke-width="1px">0.016</text><text style="text-anchor: end; visibility: inherit; font-family: &quot;Helvetica Neue&quot;, sans-serif; font-size: 12px; font-weight: 200;" x="0" y="81.00428560801913" dx="0em" dy="0.3em" fill="rgb(50, 49, 63)" stroke="none" stroke-width="1px">0.018</text><text style="text-anchor: end; visibility: inherit; font-family: &quot;Helvetica Neue&quot;, sans-serif; font-size: 12px; font-weight: 200;" x="0" y="54.00285707201277" dx="0em" dy="0.3em" fill="rgb(50, 49, 63)" stroke="none" stroke-width="1px">0.02</text><text style="text-anchor: end; visibility: inherit; font-family: &quot;Helvetica Neue&quot;, sans-serif; font-size: 12px; font-weight: 200;" x="0" y="27.001428536006415" dx="0em" dy="0.3em" fill="rgb(50, 49, 63)" stroke="none" stroke-width="1px">0.022</text><text style="text-anchor: end; visibility: hidden; font-family: &quot;Helvetica Neue&quot;, sans-serif; font-size: 12px; font-weight: 200;" x="0" y="0" dx="0em" dy="0.3em" fill="rgb(50, 49, 63)" stroke="none" stroke-width="1px">0.024</text></g><line x1="61.77000045776367" y1="0" x2="61.77000045776367" y2="378.01999950408936" fill="rgb(0, 0, 0)" stroke="rgb(204, 204, 204)" stroke-width="1px"></line></g></g><g transform="translate(61, 0)" clip-path="url(#clip_0)"><clipPath id="clip_0"><rect width="839" height="378"></rect></clipPath><g><g><g><line x1="0" y1="0" x2="0" y2="378.01999950408936" fill="rgb(0, 0, 0)" stroke="rgb(60, 60, 60)" stroke-width="1px" opacity="0.25"></line><line x1="69.97749996185303" y1="0" x2="69.97749996185303" y2="378.01999950408936" fill="rgb(0, 0, 0)" stroke="rgb(60, 60, 60)" stroke-width="1px" opacity="0.25"></line><line x1="139.95499992370605" y1="0" x2="139.95499992370605" y2="378.01999950408936" fill="rgb(0, 0, 0)" stroke="rgb(60, 60, 60)" stroke-width="1px" opacity="0.25"></line><line x1="209.93249988555908" y1="0" x2="209.93249988555908" y2="378.01999950408936" fill="rgb(0, 0, 0)" stroke="rgb(60, 60, 60)" stroke-width="1px" opacity="0.25"></line><line x1="279.9099998474121" y1="0" x2="279.9099998474121" y2="378.01999950408936" fill="rgb(0, 0, 0)" stroke="rgb(60, 60, 60)" stroke-width="1px" opacity="0.25"></line><line x1="349.88749980926514" y1="0" x2="349.88749980926514" y2="378.01999950408936" fill="rgb(0, 0, 0)" stroke="rgb(60, 60, 60)" stroke-width="1px" opacity="0.25"></line><line x1="419.86499977111816" y1="0" x2="419.86499977111816" y2="378.01999950408936" fill="rgb(0, 0, 0)" stroke="rgb(60, 60, 60)" stroke-width="1px" opacity="0.25"></line><line x1="489.84249973297125" y1="0" x2="489.84249973297125" y2="378.01999950408936" fill="rgb(0, 0, 0)" stroke="rgb(60, 60, 60)" stroke-width="1px" opacity="0.25"></line><line x1="559.8199996948242" y1="0" x2="559.8199996948242" y2="378.01999950408936" fill="rgb(0, 0, 0)" stroke="rgb(60, 60, 60)" stroke-width="1px" opacity="0.25"></line><line x1="629.7974996566772" y1="0" x2="629.7974996566772" y2="378.01999950408936" fill="rgb(0, 0, 0)" stroke="rgb(60, 60, 60)" stroke-width="1px" opacity="0.25"></line><line x1="699.7749996185303" y1="0" x2="699.7749996185303" y2="378.01999950408936" fill="rgb(0, 0, 0)" stroke="rgb(60, 60, 60)" stroke-width="1px" opacity="0.25"></line><line x1="769.7524995803833" y1="0" x2="769.7524995803833" y2="378.01999950408936" fill="rgb(0, 0, 0)" stroke="rgb(60, 60, 60)" stroke-width="1px" opacity="0.25"></line><line x1="839.7299995422363" y1="0" x2="839.7299995422363" y2="378.01999950408936" fill="rgb(0, 0, 0)" stroke="rgb(60, 60, 60)" stroke-width="1px" opacity="0.25"></line></g><g><line x1="0" y1="378.01999950408936" x2="839.7299995422363" y2="378.01999950408936" fill="rgb(0, 0, 0)" stroke="rgb(60, 60, 60)" stroke-width="1px" opacity="0.25"></line><line x1="0" y1="351.018570968083" x2="839.7299995422363" y2="351.018570968083" fill="rgb(0, 0, 0)" stroke="rgb(60, 60, 60)" stroke-width="1px" opacity="0.25"></line><line x1="0" y1="324.0171424320766" x2="839.7299995422363" y2="324.0171424320766" fill="rgb(0, 0, 0)" stroke="rgb(60, 60, 60)" stroke-width="1px" opacity="0.25"></line><line x1="0" y1="297.0157138960702" x2="839.7299995422363" y2="297.0157138960702" fill="rgb(0, 0, 0)" stroke="rgb(60, 60, 60)" stroke-width="1px" opacity="0.25"></line><line x1="0" y1="270.0142853600638" x2="839.7299995422363" y2="270.0142853600638" fill="rgb(0, 0, 0)" stroke="rgb(60, 60, 60)" stroke-width="1px" opacity="0.25"></line><line x1="0" y1="243.01285682405745" x2="839.7299995422363" y2="243.01285682405745" fill="rgb(0, 0, 0)" stroke="rgb(60, 60, 60)" stroke-width="1px" opacity="0.25"></line><line x1="0" y1="216.01142828805106" x2="839.7299995422363" y2="216.01142828805106" fill="rgb(0, 0, 0)" stroke="rgb(60, 60, 60)" stroke-width="1px" opacity="0.25"></line><line x1="0" y1="189.00999975204468" x2="839.7299995422363" y2="189.00999975204468" fill="rgb(0, 0, 0)" stroke="rgb(60, 60, 60)" stroke-width="1px" opacity="0.25"></line><line x1="0" y1="162.00857121603832" x2="839.7299995422363" y2="162.00857121603832" fill="rgb(0, 0, 0)" stroke="rgb(60, 60, 60)" stroke-width="1px" opacity="0.25"></line><line x1="0" y1="135.0071426800319" x2="839.7299995422363" y2="135.0071426800319" fill="rgb(0, 0, 0)" stroke="rgb(60, 60, 60)" stroke-width="1px" opacity="0.25"></line><line x1="0" y1="108.00571414402555" x2="839.7299995422363" y2="108.00571414402555" fill="rgb(0, 0, 0)" stroke="rgb(60, 60, 60)" stroke-width="1px" opacity="0.25"></line><line x1="0" y1="81.00428560801913" x2="839.7299995422363" y2="81.00428560801913" fill="rgb(0, 0, 0)" stroke="rgb(60, 60, 60)" stroke-width="1px" opacity="0.25"></line><line x1="0" y1="54.00285707201277" x2="839.7299995422363" y2="54.00285707201277" fill="rgb(0, 0, 0)" stroke="rgb(60, 60, 60)" stroke-width="1px" opacity="0.25"></line><line x1="0" y1="27.001428536006415" x2="839.7299995422363" y2="27.001428536006415" fill="rgb(0, 0, 0)" stroke="rgb(60, 60, 60)" stroke-width="1px" opacity="0.25"></line><line x1="0" y1="0" x2="839.7299995422363" y2="0" fill="rgb(0, 0, 0)" stroke="rgb(60, 60, 60)" stroke-width="1px" opacity="0.25"></line></g></g></g><g><g><line x1="0" y1="324.0171424320766" x2="839.7299995422363" y2="324.0171424320766" fill="rgb(0, 0, 0)" stroke="rgb(153, 153, 153)" stroke-width="1.5px"></line></g></g><g><g><line x1="69.97749996185303" y1="0" x2="69.97749996185303" y2="378.01999950408936" fill="rgb(0, 0, 0)" stroke="rgb(153, 153, 153)" stroke-width="1.5px"></line></g></g><g><g><g><g><g><path style="fill: none;" stroke="rgb(238, 51, 119)" stroke-width="2px" d="M139.95499992370605,123.26951705590096L209.93249988555908,128.67968266291948L279.9099998474121,142.96106192731716L349.88749980926514,146.28561763540654L419.86499977111816,153.6052394184731L489.84249973297125,156.93321886611434L559.8199996948242,152.75219886999776L629.7974996566772,156.29300572257958L699.7749996185303,156.1460060289703L769.7524995803833,153.51035490545905" fill="none"></path></g><g><path style="fill: none;" stroke="rgb(51, 187, 238)" stroke-width="2px" d="M95.86917494773864,-32.02710085093025L97.26872494697571,55.50083204903018L97.96849994659424,41.2654768395754L99.3680499458313,-129.24130178955164L100.76759994506835,-62.3785110568939L101.4673749446869,30.175195789557904L102.86692494392395,38.86945161997198L104.266474943161,58.39545610106137L104.96624994277954,64.70274317414959L106.36579994201661,111.97237949391808L107.06557494163513,91.76580423958688L108.4651249408722,57.80372700817213L109.86467494010925,114.88065742246812L110.56444993972777,108.94205142327161L111.96399993896485,100.28475135905768L113.36354993820191,99.128141024314L114.06332493782044,79.2905983495142L115.4628749370575,91.57262485787896L116.16264993667603,63.94643536819376L117.5621999359131,68.35468928655888L118.96174993515014,116.55772417370514L119.66152493476866,98.36871332078368L121.06107493400573,78.27138652873413L122.46062493324281,-62.92697764755644L123.16039993286132,-16.382722644206865L124.5599499320984,46.0939017694094L125.95949993133544,6.5990636862899805L126.65927493095398,40.03588352758538L128.05882493019104,60.967218073728134L128.75859992980955,103.86969454798412L130.15814992904663,129.29906040213183L131.5576999282837,158.99323342819744L132.25747492790222,119.75298964238152L133.6570249271393,77.95079478541811L135.05657492637633,92.51391207572249L135.75634992599487,105.25233450500468L137.15589992523192,87.84289586089847L138.555449924469,92.18901327424777L139.2552249240875,89.02550846717679L139.95499992370605,110.1339093678506L140.6547749233246,112.09480053345578L142.05432492256165,126.03114447593728L142.7540999221802,116.18929027393438L144.15364992141724,154.0632128234215L145.5531999206543,150.41794774037433L146.25297492027283,154.45959480790702L147.6525249195099,136.75754107212066L149.05207491874694,157.78798271277188L149.75184991836548,121.17344330954722L151.15139991760253,131.867264320158L151.85117491722107,120.30611913035506L153.25072491645813,139.99778349377254L154.6502749156952,164.72533950495972L155.35004991531372,146.98065901570834L156.7495999145508,126.00712824044692L158.14914991378782,136.89585032771487L158.8489249134064,117.47442130283468L160.24847491264342,119.16223454783955L161.6480249118805,127.45906437865216L162.347799911499,130.10124870747762L163.7473499107361,158.1906190224526L164.4471249103546,168.77125174489777L165.84667490959168,153.51640786335727L167.24622490882874,156.8152545088483L167.94599990844728,156.28078391296785L169.34554990768433,118.48096831343707L170.74509990692138,121.74090447739366L171.44487490653992,152.98805783020467L172.84442490577698,116.23137075183018L174.24397490501403,119.85332116777238L174.94374990463257,109.42962493423039L176.34329990386962,140.762350825749L177.04307490348816,165.7105231265248L178.4426249027252,149.29089628023308L179.8421749019623,109.5179398439746L180.5419499015808,139.11734122296954L181.9414999008179,149.7466595804767L183.3410499000549,173.14201699405066L184.04082489967348,196.90051379025127L185.4403748989105,131.08980554237553L186.14014989852907,135.8571213667405L187.5396998977661,119.46635537447304L188.93924989700318,152.91145531305636L189.6390248966217,122.20270360594625L191.03857489585877,160.3139431325486L192.43812489509583,98.07727962881091L193.13789989471437,137.82551908630208L194.53744989395142,144.56002611078034L195.93699989318847,164.59816563768806L196.636774892807,116.44632026994663L198.03632489204406,187.71975835774845L198.7360998916626,167.92861045799137L200.13564989089966,175.3205074287322L201.5351998901367,156.14483330940365L202.23497488975525,147.35108947828874L203.6345248889923,170.1754281103497L205.03407488822938,169.82641536332602L205.7338498878479,138.02156261430014L207.13339988708498,118.2839829858388L208.532949886322,129.58784203569394L209.23272488594057,109.09444573906927L209.93249988555908,118.43531342140096L210.63227488517762,144.82066383975376L212.03182488441468,122.65638661880854L212.73159988403322,107.11563979326087L214.13114988327027,80.02506950780713L215.53069988250732,161.75260765143287L216.23047488212586,107.94132817029441L217.6300248813629,116.66447895495736L219.02957488059997,117.69702831553013L219.7293498802185,141.73009170529843L221.12889987945553,146.74921682688154L221.8286748790741,126.26350398333429L223.22822487831112,157.3350334544149L224.62777487754823,109.74719118844479L225.32754987716672,104.81691103368127L226.72709987640383,123.96435904920892L228.12664987564088,135.61078144581202L228.82642487525942,159.84799043248958L230.22597487449647,135.14153508766364L231.6255248737335,132.92688561930296L232.32529987335207,148.2580048707513L233.7248498725891,171.68806529513077L234.42462487220766,164.27352696606783L235.82417487144468,135.07705375579502L237.22372487068174,171.6032567812758L237.92349987030028,200.01285966195857L239.32304986953733,178.70615659820442L240.72259986877444,159.24911121141562L241.42237486839292,178.04040216382796L242.82192486763003,175.60189735510713L244.22147486686706,109.32310372348968L244.92124986648562,133.41310424580155L246.32079986572265,129.33587361999864L247.02057486534122,95.41284955453739L248.42012486457824,107.30250937657331L249.8196748638153,101.36640284773819L250.51944986343383,126.65915164811386L251.9189998626709,134.02371288135143L253.31854986190797,137.48846648462927L254.01832486152648,142.5388337096194L255.41787486076353,176.39489913502652L256.1176498603821,185.57310722164297L257.5171998596191,208.27173803326048L258.91674985885624,120.3178100634878L259.6165248584747,152.14440585066984L261.0160748577118,142.55648777137603L262.41562485694885,163.43776157330998L263.1153998565674,178.29572013505987L264.51494985580445,150.54801718164637L265.91449985504147,182.21207212042344L266.61427485466004,157.541551180349L268.01382485389706,164.77703818737336L268.71359985351563,154.19559406657166L270.11314985275266,162.63350393295408L271.51269985198974,117.31735906097504L272.21247485160825,137.59542590947447L273.61202485084533,177.1990470506472L275.0115748500824,147.01021455205336L275.7113498497009,151.65054020415184L277.110899848938,188.9689367103131L278.510449848175,155.06240860433857L279.2102248477936,142.29074829059223L279.9099998474121,128.3522479318104L280.6097748470306,126.35619214187386L282.0093248462677,153.21057963510506L282.7090998458862,146.97088344319053L284.1086498451233,164.78794665719434L285.5081998443604,168.0141608956705L286.2079748439789,149.28178375104858L287.60752484321597,157.158418023183L289.007074842453,130.31548864219923L289.7068498420715,160.53457193754343L291.1063998413086,169.01074551713478L291.8061748409271,190.75858159568511L293.2057248401642,207.19477058175084L294.60527483940126,160.01616241845892L295.3050498390198,135.768182413914L296.70459983825685,144.13925155527744L298.1041498374939,146.97813917971712L298.80392483711245,166.15800063252877L300.20347483634947,170.70663011179053L301.60302483558655,159.97324943681357L302.30279983520506,174.50880963572737L303.70234983444215,196.54536258117886L304.40212483406066,210.81929058799417L305.80167483329774,173.43339174572358L307.2012248325348,179.01654514146378L307.9009998321533,196.08319942410816L309.3005498313904,208.7817954565321L310.70009983062744,219.173640553001L311.399874830246,151.25015196763925L312.79942482948303,165.79372570919776L314.19897482872005,160.64653469413895L314.8987498283386,164.56648385252078L316.29829982757565,167.82443078496448L316.9980748271942,158.15154464537733L318.39762482643124,192.7615252943836L319.7971748256684,148.82387814738595L320.49694982528683,124.84314707082433L321.89649982452397,165.8878575100569L323.296049823761,184.00045372348066L323.9958248233795,139.55881715564973L325.3953748226166,122.18458012156066L326.0951498222351,98.17549627722036L327.4946998214722,131.3658887049539L328.8942498207092,163.44021170794085L329.5940248203278,158.6552245812063L330.9935748195648,188.3290988695965L332.3931248188019,194.55074713921834L333.0928998184204,150.78646976322813L334.4924498176575,143.21073069241308L335.89199981689455,98.98551642492589L336.59177481651307,140.42839432470134L337.99132481575015,193.7084203479866L338.69109981536866,206.2289625636486L340.09064981460574,193.0127186625005L341.49019981384276,169.38897125235243L342.1899748134613,186.43901268574868L343.58952481269836,146.02133495580912L344.98907481193544,181.15587052398652L345.68884981155395,204.7329334905719L347.08839981079103,171.52366885573136L348.48794981002806,208.79301048428468L349.1877248096466,145.92055931040053L349.88749980926514,186.79000765519686L350.58727480888365,204.25682800316415L351.98682480812073,191.83378836411987L352.68659980773924,197.4691698706098L354.0861498069763,177.01254893731428L355.4856998062134,181.14921276166814L356.1854748058319,179.78845164741082L357.585024805069,100.83727008570503L358.984574804306,16.315209513512855L359.6843498039246,75.90681840914954L361.0838998031616,109.69983180785368L361.7836748027802,85.62460014704038L363.1832248020172,116.61745650506055L364.58277480125423,127.48590741582908L365.2825498008728,101.12795753110396L366.6820998001098,111.49058223968814L368.08164979934696,111.42013972722924L368.7814247989654,158.00080564046223L370.18097479820256,139.07788136595815L371.5805247974396,108.75539269055491L372.28029979705815,136.78101722392145L373.6798497962952,147.5159231857929L374.37962479591374,173.87856304045965L375.77917479515077,180.19690290907934L377.1787247943878,132.07710362982053L377.87849979400636,197.33394163786937L379.2780497932434,184.1932082217869L380.67759979248046,197.09934497377282L381.377374792099,158.14400820550213L382.77692479133606,201.7385604515676L384.17647479057314,171.58088984629413L384.87624979019165,139.01431687849012L386.27579978942873,139.4603854447084L386.97557478904724,141.48136873857075L388.3751247882843,108.54516364884796L389.77467478752135,178.92056852055342L390.4744497871399,174.136782430408L391.87399978637694,203.28394081029472L393.273549785614,203.0889253653362L393.97332478523253,170.3037837735403L395.3728747844696,202.2515197381216L396.0726497840881,185.1606746003006L397.4721997833252,153.09987662565723L398.87174978256223,126.82555612507375L399.5715247821808,95.68842742566477L400.9710747814178,134.1433431882171L402.3706247806549,141.97321823772123L403.0703997802734,137.4123501897651L404.4699497795105,134.4411270078006L405.8694997787476,138.03017803592817L406.5692747783661,133.84944649690084L407.9688247776032,127.97843592172396L408.6685997772217,175.10988179418064L410.06814977645877,150.6046422288066L411.4676997756958,149.08243515180072L412.16747477531436,152.48501690039194L413.5670247745514,155.44978419754585L414.9665747737884,131.36088543923026L415.666349773407,158.41695528255588L417.065899772644,162.2753968331287L418.46544977188114,143.92189337022984L419.1652247714996,172.07696485530178L419.86499977111816,195.2409804202814L420.56477477073673,173.80449934848744L421.9643247699737,166.38917288069024L422.66409976959227,163.09035348921918L424.06364976882935,176.26073009720156L425.46319976806643,167.28810532032222L426.1629747676849,155.35074411024937L427.56252476692197,186.41737804844396L428.9620747661591,162.65388905785986L429.6618497657776,172.7814989128851L431.06139976501464,180.12993672388544L431.76117476463315,154.29034426905574L433.1607247638703,159.76894698321038L434.56027476310726,173.5637791340237L435.2600497627258,201.91499963157818L436.6595997619629,186.0654887936498L438.05914976119993,208.51590473554188L438.75892476081845,213.21841753079067L440.1584747600555,158.45975705834002L441.55802475929266,163.29612615149L442.25779975891106,188.7176399048661L443.6573497581482,174.08436747860034L444.3571247577667,156.79966002608057L445.75667475700385,122.01005891826065L447.1562247562408,170.5152538531423L447.8559997558594,178.5023787420607L449.25554975509647,168.64984746524735L450.65509975433343,169.72462904189072L451.354874753952,179.4883729352956L452.7544247531891,169.89391913835107L454.15397475242617,146.84510110830254L454.8537497520446,134.26690067445026L456.25329975128176,121.06101628068984L456.95307475090027,166.36663750207106L458.3526247501373,171.80030521222744L459.7521747493744,97.955597495485L460.45194974899294,63.210582744996714L461.85149974823,135.03376315364585L463.251049747467,153.75082745163132L463.95082474708556,160.63847902624894L465.35037474632264,168.13616638559026L466.0501497459412,194.66242148283132L467.4496997451782,147.33357277693943L468.8492497444153,163.34338618191967L469.54902474403383,139.32368344250222L470.94857474327085,176.05876582283858L472.34812474250793,183.91570029791774L473.0478997421265,185.2721276216896L474.44744974136347,182.21898788998664L475.84699974060055,186.61290258234868L476.5467747402191,167.59639265531993L477.9463247394562,184.03610920061493L478.64609973907466,222.41338816029702L480.04564973831174,168.48502028639834L481.4451997375489,174.79934390891714L482.1449747371674,182.5324373854972L483.5445247364044,190.42834226200952L484.9440747356415,209.00524176754067L485.64384973526006,215.84366083756584L487.04339973449703,184.7966903329361L488.4429497337341,193.41880112872215L489.1427247333527,177.21126463006917L489.84249973297125,145.45002951193388L490.5422747325897,158.19786638484177L491.9418247318268,173.5107022835587L492.6415997314453,148.51297454896044L494.04114973068243,175.5415748530114L495.4406997299194,149.37688459217964L496.14047472953797,179.7932630023189L497.54002472877505,189.2467585793974L498.939574728012,186.7076432673164L499.6393497276306,184.52432581079398L501.03889972686767,170.233931229979L501.73867472648624,177.6574164699662L503.1382247257232,182.420630117155L504.53777472496034,167.45478401157126L505.23754972457886,169.82133409399873L506.63709972381594,181.8239231388841L508.03664972305296,163.32992938814135L508.73642472267153,191.7534442297797L510.1359747219086,203.19632311253238L511.5355247211456,172.78921848646135L512.2352997207641,192.58951511651924L513.6348497200013,167.43101025714347L514.3346247196198,122.97227712382264L515.7341747188568,122.3716358133727L517.1337247180938,120.24800093923403L517.8334997177125,122.75735814455595L519.2330497169494,136.86038715632714L520.6325997161865,171.69744353955628L521.332374715805,162.12386650155966L522.7319247150422,129.64504711658586L524.1314747142792,154.2149469945017L524.8312497138977,187.62995973923665L526.2307997131348,201.44120892249714L526.9305747127532,221.51694356625754L528.3301247119904,242.23485281893028L529.7296747112274,227.55273510260753L530.429449710846,219.83825091552438L531.8289997100829,232.02862243683091L533.2285497093201,218.24746882094905L533.9283247089386,207.554511471624L535.3278747081756,224.13312751780478L536.0276497077941,219.19552530669802L537.4271997070313,212.33639996450353L538.8267497062684,185.79240556971604L539.5265247058868,200.05127341598651L540.9260747051239,206.4818603661154L542.325624704361,242.03216820424757L543.0253997039795,211.21229951133174L544.4249497032165,233.14107899074077L545.8244997024536,206.71296526781197L546.5242747020721,179.06981520704437L547.9238247013092,196.59477586805488L548.6235997009277,199.9084321569019L550.0231497001648,169.25698520164408L551.4226996994018,161.18080916629157L552.1224746990204,193.24941918175116L553.5220246982575,178.11076426903543L554.9215746974945,171.10016017701471L555.621349697113,164.84089899846853L557.02089969635,199.23416635405067L558.4204496955872,195.96081910151L559.1202246952057,171.87817853372556L559.8199996948242,134.38958534430924L560.5197746944427,157.9685073973164L561.9193246936799,161.898391977144L562.6190996932984,170.53981359546043L564.0186496925354,178.4591959250561L565.4181996917724,202.23002954267878L566.117974691391,200.9870710904657L567.517524690628,215.56071181102234L568.9170746898651,167.87374161339878L569.6168496894836,158.39000245619997L571.0163996887208,197.84930268002486L571.7161746883392,168.0347298291196L573.1157246875763,139.3444422580805L574.5152746868134,150.10346980065455L575.2150496864319,147.87498978748064L576.614599685669,174.43930706573806L578.014149684906,175.39764982732783L578.7139246845246,204.45969509543914L580.1134746837615,178.94305209547275L581.5130246829987,140.56702437880912L582.2127996826172,139.38414173104633L583.6123496818542,179.1607918764689L584.3121246814727,195.2734466086665L585.7116746807098,191.66320369675623L587.111224679947,199.0125268639613L587.8109996795654,189.34694530289633L589.2105496788025,192.28025804483207L590.6100996780395,204.97562964117515L591.3098746776582,179.44780414694768L592.7094246768951,181.93391051299625L594.1089746761322,143.7892978279117L594.8087496757507,172.87728736927323L596.2082996749878,171.3544818414851L596.9080746746063,175.9853285382992L598.3076246738434,136.90082990003393L599.7071746730804,175.43111635653915L600.4069496726989,194.97116369640705L601.8064996719361,186.35132983093408L603.2060496711731,217.33527270309722L603.9058246707916,194.8830665216838L605.3053746700286,200.89536256635816L606.0051496696473,198.16987059511197L607.4046996688843,218.41045570794785L608.8042496681213,217.46981361492325L609.5040246677398,201.15886494676155L610.903574666977,215.89616689150003L612.303124666214,203.9514968717077L613.0028996658325,179.28217400119993L614.4024496650696,187.07813284145132L615.8019996643065,202.50597216224742L616.5017746639252,224.99078826387566L617.9013246631622,219.54101796954356L618.6010996627808,169.06425226658047L620.0006496620177,194.7599572974686L621.4001996612549,200.46541494624395L622.0999746608734,209.12478104528603L623.4995246601105,215.47166739913254L624.8990746593475,204.00427506307145L625.5988496589661,176.4649025844902L626.9983996582032,202.50682866738333L628.3979496574401,195.21373155417717L629.0977246570587,225.54306672865232L629.7974996566772,205.79540402955368L630.4972746562958,205.84639576967749L631.8968246555328,185.8235642821734L632.5965996551513,200.25950439821116L633.9961496543884,180.30688290802328L635.3956996536256,213.51717270778886L636.095474653244,204.73548578934805L637.4950246524811,201.51654583432784L638.8945746517181,184.46009736469853L639.5943496513368,189.25949087789226L640.9938996505737,207.02923251179553L641.6936746501923,228.69206252641698L643.0932246494293,231.36595008070458L644.4927746486663,167.944940994892L645.1925496482849,167.56785207913347L646.592099647522,205.14851357851475L647.991649646759,200.25337243643787L648.6914246463775,198.18404671730184L650.0909746456147,164.09687138834948L651.4905246448517,169.53854363143003L652.1902996444702,170.08654510551233L653.5898496437072,174.9159921989897L654.2896246433259,186.98928221282915L655.6891746425629,181.76727505151803L657.0887246417999,213.15968415549315L657.7884996414184,220.37321638804377L659.1880496406555,175.01490640114085L660.5875996398926,193.87905714976793L661.2873746395111,213.60595831509295L662.6869246387482,215.57965878692283L664.0864746379852,243.0303244072842L664.7862496376038,252.7306175685629L666.1857996368408,211.47445337034745L666.8855746364594,217.76656361491177L668.2851246356963,202.3951325639809L669.6846746349335,197.0701204479899L670.384449634552,185.04263786888097L671.7839996337891,179.03964891028642L673.1835496330261,182.9613217980718L673.8833246326446,165.8904149088599L675.2828746318818,183.92764345387658L675.9826496315003,216.40685530561143L677.3821996307373,211.62390541899694L678.7817496299743,207.81894221860847L679.481524629593,197.78790479229937L680.8810746288299,212.33349302869934L682.280624628067,238.28829341805715L682.9803996276855,225.7060070707468L684.3799496269226,173.15549931514076L685.7794996261597,163.12767410536722L686.4792746257782,192.73747949486548L687.8788246250153,210.54473966808575L688.5785996246337,191.18311068430015L689.9781496238709,155.7848793849338L691.3776996231079,154.09869963045415L692.0774746227265,162.2283381200778L693.4770246219634,161.67717705475647L694.8765746212006,130.92282199376632L695.5763496208191,150.4113385875893L696.9758996200561,191.31279327522992L698.3754496192932,198.0174364650337L699.0752246189118,153.88180012580173L699.7749996185303,147.17250982978078L700.4747746181488,162.3151461425085L701.8743246173858,174.99876640511076L702.5740996170044,196.67570988331138L703.9736496162415,223.60696886783523L705.3731996154785,205.2641564573807L706.072974615097,200.51968463354675L707.4725246143341,210.38770956622793L708.8720746135712,166.9367198749393L709.5718496131897,123.54532777097396L710.9713996124268,64.65400382519704L711.6711746120453,95.17530365824683L713.0707246112823,148.5075018380764L714.4702746105194,138.38762862020667L715.170049610138,153.6018089425942L716.569599609375,168.48241081719866L717.969149608612,160.84603952627086L718.6689246082306,160.367278200436L720.0684746074677,189.72817026194735L721.4680246067047,222.04302963942405L722.1677996063232,181.23116384864358L723.5673496055604,196.96117726629572L724.2671246051789,205.37287929334775L725.6666746044159,218.59120481551844L727.0662246036529,198.01705967831273L727.7659996032716,207.9194371130279L729.1655496025085,238.50027782391604L730.5650996017456,224.4274027403594L731.2648746013641,194.4563278241322L732.6644246006013,181.17750207793486L734.0639745998383,174.1639382964818L734.7637495994568,164.26107177395474L736.1632995986939,158.948354770519L736.8630745983123,192.33074453716458L738.2626245975495,188.4164368894688L739.6621745967865,197.98934473222423L740.3619495964051,211.4832814129406L741.761499595642,198.71677893871652L743.1610495948792,167.04730854004157L743.8608245944977,185.76116686533803L745.2603745937347,193.7954456704497L745.9601495933532,211.440500383367L747.3596995925903,206.06091811105003L748.7592495918275,219.62780043191222L749.4590245914459,186.8164581013177L750.858574590683,178.85516922265438L752.25812458992,127.70436233198652L752.9578995895386,140.97670795380586L754.3574495887756,174.5570478283034L755.7569995880127,179.19292295890295L756.4567745876312,188.10279675946154L757.8563245868683,194.35734394581326L758.5560995864868,151.1918969850636L759.9556495857239,167.82435058052516L761.3551995849609,178.15524256218188L762.0549745845794,206.14430144908283L763.4545245838166,211.74261408388418L764.8540745830536,225.3933471286196L765.5538495826721,226.64059366859888L766.9533995819091,246.74994563670145L768.3529495811463,248.55626989551408L769.0527245807648,201.66391548730226" fill="none"></path></g></g></g></g><g opacity="0.2"><g><g><g><path style="fill: none;" stroke="rgb(238, 51, 119)" stroke-width="2px" d="M139.95499992370605,123.26951705590096L209.93249988555908,131.92578202713054L279.9099998474121,156.67118602113902L349.88749980926514,150.19529514811953L419.86499977111816,163.16173761844496L489.84249973297125,161.53701251480328L559.8199996948242,146.77327337923103L629.7974996566772,161.4555361053897L699.7749996185303,155.9292100341171L769.7524995803833,149.5967201563694" fill="none"></path></g><g><path style="fill: none;" stroke="rgb(51, 187, 238)" stroke-width="2px" d="M81.1738999557495,-396.5447318446294L81.87367495536805,118.49513777298745L83.2732249546051,-288.45732241135465L84.67277495384216,29.601131134667355L85.37254995346069,-72.64180445150294L88.17164995193481,-143.7214216712324L88.87142495155335,27.038119676692986L90.2709749507904,-8.86664792385659L93.76984994888305,-135.21654188045636L94.46962494850159,117.75511068156106L95.86917494773864,-25.95192406635573L97.26872494697571,186.79210928788524L97.96849994659424,19.912504732680418L99.3680499458313,-385.0010334531278L100.76759994506835,37.91557239195919L101.4673749446869,169.00567080419074L102.86692494392395,51.91083056041009L104.266474943161,87.68445634765982L104.96624994277954,74.163672528843L106.36579994201661,182.87682833052565L107.06557494163513,61.45594280544549L108.4651249408722,6.8606126206305476L109.86467494010925,200.4960515721229L110.56444993972777,100.03414251635672L111.96399993896485,87.29880134310235L113.36354993820191,97.39322552864058L114.06332493782044,49.53428440360898L115.4628749370575,109.99566459579904L116.16264993667603,22.507151166902418L117.5621999359131,74.96707016092438L118.96174993515014,188.86227648354756L119.66152493476866,71.08519704612831L121.06107493400573,48.12539634379334L122.46062493324281,-274.724523898783L123.16039993286132,53.433659858204976L124.5599499320984,139.80883838772965L125.95949993133544,-52.64319343759104L126.65927493095398,90.19111328912317L128.05882493019104,92.36421989278983L128.75859992980955,168.22340925918098L130.15814992904663,167.44310918328677L131.5576999282837,203.5344929672492L132.25747492790222,60.89262396369469L133.6570249271393,15.247502499996585L135.05657492637633,114.35858801117422L135.75634992599487,124.35996814892542L137.15589992523192,61.72873789474119L138.555449924469,98.70818939427124L139.2552249240875,84.28025125657052L139.95499992370605,141.7965107188607L140.6547749233246,115.03613728186366L142.05432492256165,146.9356603896594L142.7540999221802,101.42650897093017L144.15364992141724,210.87409664765204L145.5531999206543,144.9500501158036L146.25297492027283,160.52206540920602L147.6525249195099,110.20446046844125L149.05207491874694,189.33364517374878L149.75184991836548,66.25163420471023L151.15139991760253,147.90799583607418L151.85117491722107,102.96440134565063L153.25072491645813,169.53528003889866L154.6502749156952,201.81667352174054L155.35004991531372,120.3636382818313L156.7495999145508,94.54683207755477L158.14914991378782,153.22893345861686L158.8489249134064,88.34227776551432L160.24847491264342,121.69395441534675L161.6480249118805,139.90430912487116L162.347799911499,134.06452520071588L163.7473499107361,200.3246744949151L164.4471249103546,184.64220082856548L165.84667490959168,130.63414204104654L167.24622490882874,161.76352447708487L167.94599990844728,155.47907801914724L169.34554990768433,61.781244914140984L170.74509990692138,126.63080872332844L171.44487490653992,199.85878785942128L172.84442490577698,61.09634013426847L174.24397490501403,125.28624679168558L174.94374990463257,93.79408058391749L176.34329990386962,187.7614396630269L177.04307490348816,203.13278157768855L178.4426249027252,124.66145601079543L179.8421749019623,49.85850518958699L180.5419499015808,183.51644329146185L181.9414999008179,165.6906371167374L183.3410499000549,208.23505311441164L184.04082489967348,232.53825898455216L185.4403748989105,32.37374317056208L186.14014989852907,143.0080951032879L187.5396998977661,94.88020638607179L188.93924989700318,203.0791052209314L189.6390248966217,76.13957604528105L191.03857489585877,217.48080242245214L192.43812489509583,4.722284373204275L193.13789989471437,197.44787827253884L194.53744989395142,154.66178664749765L195.93699989318847,194.65537492804967L196.636774892807,44.21855221833442L198.03632489204406,294.62991548945126L198.7360998916626,138.2418886083557L200.13564989089966,186.40835288484354L201.5351998901367,127.38132213041084L202.23497488975525,134.1604737316163L203.6345248889923,204.4119360584411L205.03407488822938,169.30289624279052L205.7338498878479,90.31428349076123L207.13339988708498,88.67761354314689L208.532949886322,146.54363061047664L209.23272488594057,78.35435129413236L209.93249988555908,132.44661494489856L210.63227488517762,184.39868946728276L212.03182488441468,89.40997078739082L212.73159988403322,83.80451955493925L214.13114988327027,39.3892140796267L215.53069988250732,284.34391486687144L216.23047488212586,27.224408948586643L217.6300248813629,129.7492051319518L219.02957488059997,119.24585235638943L219.7293498802185,177.7796867899508L221.12889987945553,154.27790450925622L221.8286748790741,95.5349347180134L223.22822487831112,203.94232766103585L224.62777487754823,38.36542778948967L225.32754987716672,97.42149080153592L226.72709987640383,152.68553107250048L228.12664987564088,153.08041504071673L228.82642487525942,196.20380391250598L230.22597487449647,98.08185207042465L231.6255248737335,129.604911416762L232.32529987335207,171.2546837479237L233.7248498725891,206.8331559317L234.42462487220766,153.15171947247356L235.82417487144468,91.28234394038577L237.22372487068174,226.39256131949696L237.92349987030028,242.62726398298278L239.32304986953733,146.74610200257325L240.72259986877444,130.0635431312324L241.42237486839292,206.22733859244644L242.82192486763003,171.94414014202582L244.22147486686706,9.904913276063496L244.92124986648562,169.54810502926935L246.32079986572265,123.22002768129423L247.02057486534122,44.52831345634553L248.42012486457824,125.13699910962711L249.8196748638153,92.4622430544855L250.51944986343383,164.59827484867733L251.9189998626709,145.07055473120784L253.31854986190797,142.685596889546L254.01832486152648,150.11438454710472L255.41787486076353,227.17899727313718L256.1176498603821,199.34041935156765L257.5171998596191,242.31968425068672L258.91674985885624,-11.613081891171134L259.6165248584747,199.88429953144293L261.0160748577118,128.17461065243535L262.41562485694885,194.75967227621098L263.1153998565674,200.58265797768468L264.51494985580445,108.926462751526L265.91449985504147,229.70815452858903L266.61427485466004,120.53576977023732L268.01382485389706,175.6302686979099L268.71359985351563,138.32342788536909L270.11314985275266,175.29036873252775L271.51269985198974,49.34314175300642L272.21247485160825,168.01252618222358L273.61202485084533,236.60447876240633L275.0115748500824,101.72696580416255L275.7113498497009,158.61102868229958L277.110899848938,244.94653146955497L278.510449848175,104.20261644537686L279.2102248477936,123.13325781997281L279.9099998474121,107.44449739363762L280.6097748470306,123.36210845696908L282.0093248462677,193.49216087495174L282.7090998458862,137.61133915531877L284.1086498451233,191.51354147819995L285.5081998443604,172.85348225338475L286.2079748439789,121.18321803411561L287.60752484321597,168.97336943138467L289.007074842453,90.05109457072354L289.7068498420715,205.8631968805598L291.1063998413086,181.7250058865217L291.8061748409271,223.38033571351068L293.2057248401642,231.84905406084943L294.60527483940126,89.24825017352094L295.3050498390198,99.39621240709664L296.70459983825685,156.6958552673226L298.1041498374939,151.23647061637675L298.80392483711245,194.92779281174623L300.20347483634947,177.5295743306832L301.60302483558655,143.87317842434814L302.30279983520506,196.31214993409802L303.70234983444215,229.6001919993561L304.40212483406066,232.2301825982172L305.80167483329774,117.35454348231781L307.2012248325348,187.39127523507403L307.9009998321533,221.68318084807473L309.3005498313904,227.82968950516803L310.70009983062744,234.76140819770433L311.399874830246,49.36491908959658L312.79942482948303,187.60908632153556L314.19897482872005,152.92574817155074L314.8987498283386,170.4464075900935L316.29829982757565,172.71135118363006L316.9980748271942,143.64221543599672L318.39762482643124,244.676496267893L319.7971748256684,82.9174074268895L320.49694982528683,88.87205045598188L321.89649982452397,227.4549231689057L323.296049823761,211.16934804361634L323.9958248233795,72.89636230390329L325.3953748226166,96.12322457042706L326.0951498222351,62.161870510709946L327.4946998214722,181.15147734655423L328.8942498207092,211.5516962124213L329.5940248203278,151.47774389110455L330.9935748195648,232.8399103021818L332.3931248188019,203.8832195436511L333.0928998184204,85.1400536992428L334.4924498176575,131.84712208619058L335.89199981689455,32.647695023695064L336.59177481651307,202.59271117436452L337.99132481575015,273.62845938291446L338.69109981536866,225.0097758871416L340.09064981460574,173.18835281077838L341.49019981384276,133.95335013713031L342.1899748134613,212.0140748358431L343.58952481269836,85.39481836089976L344.98907481193544,233.85767387625256L345.68884981155395,240.09852794044997L347.08839981079103,121.7097719034706L348.48794981002806,264.69702292711463L349.1877248096466,51.61188254957426L349.88749980926514,248.0941801723914L350.58727480888365,230.45705852511512L351.98682480812073,173.19922890555347L352.68659980773924,205.9222421303447L354.0861498069763,146.32761753737097L355.4856998062134,187.35420849819886L356.1854748058319,177.7473099760249L357.585024805069,-17.589502256853677L358.984574804306,-110.46788134477532L359.6843498039246,165.29423175260462L361.0838998031616,160.38935190590976L361.7836748027802,49.511752655820544L363.1832248020172,163.10674104209085L364.58277480125423,143.78858378198174L365.2825498008728,61.5910327040163L366.6820998001098,127.03451930256452L368.08164979934696,111.31447595854087L368.7814247989654,227.87180451031165L370.18097479820256,110.69349495420204L371.5805247974396,63.27165967745009L372.28029979705815,178.81945402397125L373.6798497962952,163.61828212860013L374.37962479591374,213.4225228224598L375.77917479515077,189.67441271200892L377.1787247943878,59.89740471093228L377.87849979400636,295.2191986499426L379.2780497932434,164.4821080976632L380.67759979248046,216.45855010175163L381.377374792099,99.71100305309619L382.77692479133606,267.13038882066576L384.17647479057314,126.34438393838394L384.87624979019165,90.16445742678411L386.27579978942873,140.12948829403578L386.97557478904724,144.5128436793642L388.3751247882843,59.140856014263704L389.77467478752135,284.4836758281116L390.4744497871399,166.96110329518984L391.87399978637694,247.00467838012477L393.273549785614,202.79640219789837L393.97332478523253,121.12607138584639L395.3728747844696,250.17312368499358L396.0726497840881,159.52440689356922L397.4721997833252,105.00867966369213L398.87174978256223,87.4140753741986L399.5715247821808,48.982734376551264L400.9710747814178,191.82571683204552L402.3706247806549,153.7180308119775L403.0703997802734,130.57104811783094L404.4699497795105,129.9842922348538L405.8694997787476,143.41375457811952L406.5692747783661,127.57834918835991L407.9688247776032,119.17192005895862L408.6685997772217,245.80705060286562L410.06814977645877,113.84678288074554L411.4676997756958,146.7991245362919L412.16747477531436,157.5888895232788L413.5670247745514,159.8969351432767L414.9665747737884,95.22753730175691L415.666349773407,199.00106004754426L417.065899772644,168.06305915898795L418.46544977188114,116.3916381758815L419.1652247714996,214.3095720829097L419.86499977111816,229.98700376775085L420.56477477073673,141.6497777407965L421.9643247699737,155.26618317899445L422.66409976959227,158.14212440201266L424.06364976882935,196.0162950091751L425.46319976806643,153.82916815500317L426.1629747676849,137.4447022951401L427.56252476692197,233.01732895573576L428.9620747661591,127.00865557198372L429.6618497657776,187.9729136954229L431.06139976501464,191.15259344038603L431.76117476463315,115.53095558681122L433.1607247638703,167.98685105444235L434.56027476310726,194.2560273602436L435.2600497627258,244.44183037791004L436.6595997619629,162.29122253675718L438.05914976119993,242.19152864838L438.75892476081845,220.27218672366388L440.1584747600555,76.32176634966407L441.55802475929266,170.5506797912149L442.25779975891106,226.8499105349303L443.6573497581482,152.13445883920164L444.3571247577667,130.87259884730082L445.75667475700385,69.82565725653086L447.1562247562408,243.27304625546486L447.8559997558594,190.48306607543827L449.25554975509647,153.87105055002732L450.65509975433343,171.33680140685578L451.354874753952,194.13398877540288L452.7544247531891,155.50223844293424L454.15397475242617,112.27187406322986L454.8537497520446,115.39960002367178L456.25329975128176,101.25218969004908L456.95307475090027,234.3250693341429L458.3526247501373,179.95080677746208L459.7521747493744,-12.811464079628593L460.45194974899294,11.09306061926435L461.85149974823,242.76853376661947L463.251049747467,181.82642389860956L463.95082474708556,170.96995638817535L465.35037474632264,179.38269742460218L466.0501497459412,234.45180412869286L467.4496997451782,76.34029971810162L468.8492497444153,187.35810628938995L469.54902474403383,103.29412933337596L470.94857474327085,231.1613893933432L472.34812474250793,195.70110201053646L473.0478997421265,187.30676860734744L474.44744974136347,177.63927829243215L475.84699974060055,193.20377462089175L476.5467747402191,139.07162776477682L477.9463247394562,208.69568401855747L478.64609973907466,279.9793065998201L480.04564973831174,87.59246847555033L481.4451997375489,184.2708293426954L482.1449747371674,194.13207760036727L483.5445247364044,202.27219957677804L484.9440747356415,236.8705910258373L485.64384973526006,226.1012894426036L487.04339973449703,138.22623457599155L488.4429497337341,206.35196732240124L489.1427247333527,152.89995988208975L489.84249973297125,97.80817683473094L490.5422747325897,177.3196216942037L491.9418247318268,196.47995613163397L492.6415997314453,111.01638294706311L494.04114973068243,216.08447530908774L495.4406997299194,110.12984920093203L496.14047472953797,225.41783061752773L497.54002472877505,203.4270019450152L498.939574728012,182.89897029919496L499.6393497276306,181.24934962601026L501.03889972686767,148.79833935875655L501.73867472648624,188.7926443299469L503.1382247257232,189.5654505879383L504.53777472496034,145.00601485319558L505.23754972457886,173.37115921764L506.63709972381594,199.8278067062122L508.03664972305296,135.58893876202717L508.73642472267153,234.38871649223725L510.1359747219086,220.36064143666144L511.5355247211456,127.17856154735489L512.2352997207641,222.28996006160605L513.6348497200013,129.69325296807983L514.3346247196198,56.28417742384141L515.7341747188568,121.47067384769775L517.1337247180938,117.06254862802604L517.8334997177125,126.52139395253883L519.2330497169494,158.0149306739838L520.6325997161865,223.9530281144L521.332374715805,147.76350094456487L522.7319247150422,80.92681803912507L524.1314747142792,191.0697968113755L524.8312497138977,237.75247885633905L526.2307997131348,222.15808269738787L526.9305747127532,251.63054553189818L528.3301247119904,273.31171669793935L529.7296747112274,205.52955852812337L530.429449710846,208.26652463489964L531.8289997100829,250.31417971879077L533.2285497093201,197.5757383971262L533.9283247089386,191.51507544763646L535.3278747081756,249.00105158707595L536.0276497077941,211.78912199003796L537.4271997070313,202.0477119512118L538.8267497062684,145.97641397753472L539.5265247058868,221.43957518539224L540.9260747051239,216.12774079130872L542.325624704361,295.3576299614458L543.0253997039795,164.98249647195803L544.4249497032165,266.03424820985435L545.8244997024536,167.07079468341882L546.5242747020721,137.60509011589306L547.9238247013092,222.88221685957066L548.6235997009277,204.87891659017242L550.0231497001648,123.2798147687574L551.4226996994018,149.06654511326275L552.1224746990204,241.35233420494055L553.5220246982575,155.40278189996184L554.9215746974945,160.58425403898372L555.621349697113,155.4520072306492L557.02089969635,250.82406738742384L558.4204496955872,191.05079822269897L559.1202246952057,135.7542176820489L559.8199996948242,78.15669556018469L560.5197746944427,193.3368904768271L561.9193246936799,167.7932188468855L562.6190996932984,183.50194602293502L564.0186496925354,190.33826941944966L565.4181996917724,237.88627996911285L566.117974691391,199.12263341214603L567.517524690628,237.42117289185728L568.9170746898651,96.34328631696349L569.6168496894836,144.16439372040168L571.0163996887208,257.0382530157623L571.7161746883392,123.31287055276178L573.1157246875763,96.3090109015219L574.5152746868134,166.24201111451558L575.2150496864319,144.53226976771975L576.614599685669,214.28578298312416L578.014149684906,176.83516396971243L578.7139246845246,248.05276299760615L580.1134746837615,140.6680875955232L581.5130246829987,83.00298280381361L582.2127996826172,137.60981775940223L583.6123496818542,238.82576709460278L584.3121246814727,219.44242870696283L585.7116746807098,186.24783932889085L587.111224679947,210.0365116147689L587.8109996795654,174.84857296129886L589.2105496788025,196.68022715773563L590.6100996780395,224.01868703568977L591.3098746776582,141.15606590560643L592.7094246768951,185.66307006206912L594.1089746761322,86.57237880028487L594.8087496757507,216.50927168131554L596.2082996749878,169.0702735498029L596.9080746746063,182.93159858352033L598.3076246738434,78.27408194263603L599.7071746730804,233.22654604129696L600.4069496726989,224.2812347062089L601.8064996719361,173.42157903272462L603.2060496711731,263.81118701134193L603.9058246707916,161.20475724956367L605.3053746700286,209.91380663336972L606.0051496696473,194.08163263824272L607.4046996688843,248.77133337720167L608.8042496681213,216.05885047538638L609.5040246677398,176.69244194451903L610.903574666977,238.00211980860774L612.303124666214,186.03449184201912L613.0028996658325,142.27818969543833L614.4024496650696,198.77207110182832L615.8019996643065,225.64773114344158L616.5017746639252,258.718012416318L617.9013246631622,211.36636252804544L618.6010996627808,93.34910371213584L620.0006496620177,233.3035148438008L621.4001996612549,209.02360141940702L622.0999746608734,222.11383019384914L623.4995246601105,224.99199692990226L624.8990746593475,186.80318655897995L625.5988496589661,135.15584386661834L626.9983996582032,241.56971779172304L628.3979496574401,184.27408588436796L629.0977246570587,271.037069490365L629.7974996566772,176.17390998090573L630.4972746562958,205.9228833798632L631.8968246555328,155.78931705091722L632.5965996551513,221.9134145722678L633.9961496543884,150.37795067274152L635.3956996536256,263.3326074074372L636.095474653244,191.5629554116869L637.4950246524811,196.68813590179755L638.8945746517181,158.87542466025448L639.5943496513368,196.4585811476829L640.9938996505737,233.6838449626504L641.6936746501923,261.1863075483492L643.0932246494293,235.376781412136L644.4927746486663,72.81342736617313L645.1925496482849,167.00221870549575L646.592099647522,261.5195058275866L647.991649646759,192.91066072332256L648.6914246463775,195.08005813859774L650.0909746456147,112.96610839492104L651.4905246448517,177.70105199605078L652.1902996444702,170.9085473166359L653.5898496437072,182.16016283920578L654.2896246433259,205.09921723358823L655.6891746425629,173.9342643095513L657.0887246417999,260.24829781145587L657.7884996414184,231.19351473686967L659.1880496406555,106.97744142078653L660.5875996398926,222.17528327270853L661.2873746395111,243.1963100630805L662.6869246387482,218.5402094946676L664.0864746379852,284.2063228378263L664.7862496376038,267.28105731048095L666.1857996368408,149.59020707302432L666.8855746364594,227.20472898175828L668.2851246356963,179.33798598758452L669.6846746349335,189.08260227400334L670.384449634552,167.00141400021758L671.7839996337891,170.03516547239468L673.1835496330261,188.84383112974976L673.8833246326446,140.28405457504206L675.2828746318818,210.9834862714017L675.9826496315003,265.12567308321366L677.3821996307373,204.4494805890752L678.7817496299743,202.11149741802583L679.481524629593,182.7413486528357L680.8810746288299,234.15187538329928L682.280624628067,277.22049400209386L682.9803996276855,206.83257754978132L684.3799496269226,94.32973768173161L685.7794996261597,148.08593629070694L686.4792746257782,237.15218757911285L687.8788246250153,237.25562992791615L688.5785996246337,162.14066720862175L689.9781496238709,102.68753243588424L691.3776996231079,151.56942999873473L692.0774746227265,174.42279585451328L693.4770246219634,160.85043545677453L694.8765746212006,84.791289402281L695.5763496208191,179.64411347832393L696.9758996200561,252.6649753066908L698.3754496192932,208.0744012497393L699.0752246189118,87.67834561695378L699.7749996185303,137.10857438574936L700.4747746181488,185.02910061160003L701.8743246173858,194.02419679901416L702.5740996170044,229.19112510061228L703.9736496162415,264.003857344621L705.3731996154785,177.74993784169888L706.072974615097,193.40297689779587L707.4725246143341,225.18974696524973L708.8720746135712,101.7602353380064L709.5718496131897,58.45823961502589L710.9713996124268,-23.68298209346841L711.6711746120453,140.95725340782144L713.0707246112823,228.5057991078207L714.4702746105194,123.20781879340217L715.170049610138,176.4230794261755L716.569599609375,190.80331362910536L717.969149608612,149.3914825898791L718.6689246082306,159.64913621168378L720.0684746074677,233.76950835421434L721.4680246067047,270.51531870563906L722.1677996063232,120.0133651624729L723.5673496055604,220.5561973927739L724.2671246051789,217.9904323339258L725.6666746044159,238.41869309877438L727.0662246036529,167.1558419725042L727.7659996032716,222.77300326510058L729.1655496025085,284.3715388902482L730.5650996017456,203.31809011502446L731.2648746013641,149.4997154497914L732.6644246006013,161.25926345863888L734.0639745998383,163.6435926243022L734.7637495994568,149.40677199016412L736.1632995986939,150.97927926536534L736.8630745983123,242.404329187133L738.2626245975495,182.54497541792512L739.6621745967865,212.3487064963573L740.3619495964051,231.7241864340152L741.761499595642,179.56702522738036L743.1610495948792,119.54310294202912L743.8608245944977,213.83195435328278L745.2603745937347,205.84686387811718L745.9601495933532,237.90808245274295L747.3596995925903,197.99154470257463L748.7592495918275,239.9781239132055L749.4590245914459,137.599444605426L750.858574590683,166.9132359046594L752.25812458992,50.978151995984604L752.9578995895386,160.88522638653492L754.3574495887756,224.92755764004974L755.7569995880127,186.14673565480226L756.4567745876312,201.4676074602994L757.8563245868683,203.7391647253408L758.5560995864868,86.44372654393925L759.9556495857239,192.77303097371754L761.3551995849609,193.65158053466692L762.0549745845794,248.12788977943424L763.4545245838166,220.1400830360862L764.8540745830536,245.86944669572284L765.5538495826721,228.51146347856775L766.9533995819091,276.91397358885536L768.3529495811463,251.26575628373303L769.0527245807648,131.32538387498457" fill="none"></path></g></g></g></g></g></g><g transform="translate(61, 378)" clip-path="url(#clip_1)"><clipPath id="clip_1"><rect width="839" height="21"></rect></clipPath><g><g><line x1="0" y1="0" x2="0" y2="5" style="visibility: inherit;" fill="rgb(0, 0, 0)" stroke="rgb(204, 204, 204)" stroke-width="1px"></line><line x1="69.97749996185303" y1="0" x2="69.97749996185303" y2="5" style="visibility: inherit;" fill="rgb(0, 0, 0)" stroke="rgb(204, 204, 204)" stroke-width="1px"></line><line x1="139.95499992370605" y1="0" x2="139.95499992370605" y2="5" style="visibility: inherit;" fill="rgb(0, 0, 0)" stroke="rgb(204, 204, 204)" stroke-width="1px"></line><line x1="209.93249988555908" y1="0" x2="209.93249988555908" y2="5" style="visibility: inherit;" fill="rgb(0, 0, 0)" stroke="rgb(204, 204, 204)" stroke-width="1px"></line><line x1="279.9099998474121" y1="0" x2="279.9099998474121" y2="5" style="visibility: inherit;" fill="rgb(0, 0, 0)" stroke="rgb(204, 204, 204)" stroke-width="1px"></line><line x1="349.88749980926514" y1="0" x2="349.88749980926514" y2="5" style="visibility: inherit;" fill="rgb(0, 0, 0)" stroke="rgb(204, 204, 204)" stroke-width="1px"></line><line x1="419.86499977111816" y1="0" x2="419.86499977111816" y2="5" style="visibility: inherit;" fill="rgb(0, 0, 0)" stroke="rgb(204, 204, 204)" stroke-width="1px"></line><line x1="489.84249973297125" y1="0" x2="489.84249973297125" y2="5" style="visibility: inherit;" fill="rgb(0, 0, 0)" stroke="rgb(204, 204, 204)" stroke-width="1px"></line><line x1="559.8199996948242" y1="0" x2="559.8199996948242" y2="5" style="visibility: inherit;" fill="rgb(0, 0, 0)" stroke="rgb(204, 204, 204)" stroke-width="1px"></line><line x1="629.7974996566772" y1="0" x2="629.7974996566772" y2="5" style="visibility: inherit;" fill="rgb(0, 0, 0)" stroke="rgb(204, 204, 204)" stroke-width="1px"></line><line x1="699.7749996185303" y1="0" x2="699.7749996185303" y2="5" style="visibility: inherit;" fill="rgb(0, 0, 0)" stroke="rgb(204, 204, 204)" stroke-width="1px"></line><line x1="769.7524995803833" y1="0" x2="769.7524995803833" y2="5" style="visibility: inherit;" fill="rgb(0, 0, 0)" stroke="rgb(204, 204, 204)" stroke-width="1px"></line><line x1="839.7299995422363" y1="0" x2="839.7299995422363" y2="5" style="visibility: inherit;" fill="rgb(0, 0, 0)" stroke="rgb(204, 204, 204)" stroke-width="1px"></line></g><g transform="translate(0, 8)"><text style="text-anchor: middle; visibility: hidden; font-family: &quot;Helvetica Neue&quot;, sans-serif; font-size: 12px; font-weight: 200;" x="0" y="0" dx="0em" dy="0.95em" fill="rgb(50, 49, 63)" stroke="none" stroke-width="1px">-100</text><text style="text-anchor: middle; visibility: hidden; font-family: &quot;Helvetica Neue&quot;, sans-serif; font-size: 12px; font-weight: 200;" x="69.97749996185303" y="0" dx="0em" dy="0.95em" fill="rgb(50, 49, 63)" stroke="none" stroke-width="1px">0</text><text style="text-anchor: middle; visibility: hidden; font-family: &quot;Helvetica Neue&quot;, sans-serif; font-size: 12px; font-weight: 200;" x="139.95499992370605" y="0" dx="0em" dy="0.95em" fill="rgb(50, 49, 63)" stroke="none" stroke-width="1px">100</text><text style="text-anchor: middle; visibility: hidden; font-family: &quot;Helvetica Neue&quot;, sans-serif; font-size: 12px; font-weight: 200;" x="209.93249988555908" y="0" dx="0em" dy="0.95em" fill="rgb(50, 49, 63)" stroke="none" stroke-width="1px">200</text><text style="text-anchor: middle; visibility: hidden; font-family: &quot;Helvetica Neue&quot;, sans-serif; font-size: 12px; font-weight: 200;" x="279.9099998474121" y="0" dx="0em" dy="0.95em" fill="rgb(50, 49, 63)" stroke="none" stroke-width="1px">300</text><text style="text-anchor: middle; visibility: hidden; font-family: &quot;Helvetica Neue&quot;, sans-serif; font-size: 12px; font-weight: 200;" x="349.88749980926514" y="0" dx="0em" dy="0.95em" fill="rgb(50, 49, 63)" stroke="none" stroke-width="1px">400</text><text style="text-anchor: middle; visibility: hidden; font-family: &quot;Helvetica Neue&quot;, sans-serif; font-size: 12px; font-weight: 200;" x="419.86499977111816" y="0" dx="0em" dy="0.95em" fill="rgb(50, 49, 63)" stroke="none" stroke-width="1px">500</text><text style="text-anchor: middle; visibility: hidden; font-family: &quot;Helvetica Neue&quot;, sans-serif; font-size: 12px; font-weight: 200;" x="489.84249973297125" y="0" dx="0em" dy="0.95em" fill="rgb(50, 49, 63)" stroke="none" stroke-width="1px">600</text><text style="text-anchor: middle; visibility: hidden; font-family: &quot;Helvetica Neue&quot;, sans-serif; font-size: 12px; font-weight: 200;" x="559.8199996948242" y="0" dx="0em" dy="0.95em" fill="rgb(50, 49, 63)" stroke="none" stroke-width="1px">700</text><text style="text-anchor: middle; visibility: hidden; font-family: &quot;Helvetica Neue&quot;, sans-serif; font-size: 12px; font-weight: 200;" x="629.7974996566772" y="0" dx="0em" dy="0.95em" fill="rgb(50, 49, 63)" stroke="none" stroke-width="1px">800</text><text style="text-anchor: middle; visibility: hidden; font-family: &quot;Helvetica Neue&quot;, sans-serif; font-size: 12px; font-weight: 200;" x="699.7749996185303" y="0" dx="0em" dy="0.95em" fill="rgb(50, 49, 63)" stroke="none" stroke-width="1px">900</text><text style="text-anchor: middle; visibility: hidden; font-family: &quot;Helvetica Neue&quot;, sans-serif; font-size: 12px; font-weight: 200;" x="769.7524995803833" y="0" dx="0em" dy="0.95em" fill="rgb(50, 49, 63)" stroke="none" stroke-width="1px">1k</text><text style="text-anchor: middle; visibility: hidden; font-family: &quot;Helvetica Neue&quot;, sans-serif; font-size: 12px; font-weight: 200;" x="839.7299995422363" y="0" dx="0em" dy="0.95em" fill="rgb(50, 49, 63)" stroke="none" stroke-width="1px">1.1k</text></g><line x1="0" y1="0" x2="839.7299995422363" y2="0" fill="rgb(0, 0, 0)" stroke="rgb(204, 204, 204)" stroke-width="1px"></line></g></g></g></g></svg>